<?xml version="1.0" encoding="utf-8" standalone="no"?>
<!DOCTYPE svg PUBLIC "-//W3C//DTD SVG 1.1//EN"
  "http://www.w3.org/Graphics/SVG/1.1/DTD/svg11.dtd">
<svg xmlns:xlink="http://www.w3.org/1999/xlink" width="1512pt" height="1008pt" viewBox="0 0 1512 1008" xmlns="http://www.w3.org/2000/svg" version="1.1">
 <metadata>
  <rdf:RDF xmlns:dc="http://purl.org/dc/elements/1.1/" xmlns:cc="http://creativecommons.org/ns#" xmlns:rdf="http://www.w3.org/1999/02/22-rdf-syntax-ns#">
   <cc:Work>
    <dc:type rdf:resource="http://purl.org/dc/dcmitype/StillImage"/>
    <dc:date>2025-02-05T11:56:35.173859</dc:date>
    <dc:format>image/svg+xml</dc:format>
    <dc:creator>
     <cc:Agent>
      <dc:title>Matplotlib v3.9.2, https://matplotlib.org/</dc:title>
     </cc:Agent>
    </dc:creator>
   </cc:Work>
  </rdf:RDF>
 </metadata>
 <defs>
  <style type="text/css">*{stroke-linejoin: round; stroke-linecap: butt}</style>
 </defs>
 <g id="figure_1">
  <g id="patch_1">
   <path d="M 0 1008 
L 1512 1008 
L 1512 0 
L 0 0 
z
" style="fill: #ffffff"/>
  </g>
  <g id="axes_1">
   <g id="patch_2">
    <path d="M 189 458.42087 
L 1360.8 458.42087 
L 1360.8 120.96 
L 189 120.96 
z
" style="fill: #ffffff"/>
   </g>
   <g id="matplotlib.axis_1">
    <g id="xtick_1">
     <g id="line2d_1">
      <defs>
       <path id="mb7f7634c8c" d="M 0 0 
L 0 3.5 
" style="stroke: #000000; stroke-width: 0.8"/>
      </defs>
      <g>
       <use xlink:href="#mb7f7634c8c" x="242.263636" y="458.42087" style="stroke: #000000; stroke-width: 0.8"/>
      </g>
     </g>
     <g id="text_1">
      <!-- 0 -->
      <g transform="translate(239.082386 473.019307) scale(0.1 -0.1)">
       <defs>
        <path id="DejaVuSans-30" d="M 2034 4250 
Q 1547 4250 1301 3770 
Q 1056 3291 1056 2328 
Q 1056 1369 1301 889 
Q 1547 409 2034 409 
Q 2525 409 2770 889 
Q 3016 1369 3016 2328 
Q 3016 3291 2770 3770 
Q 2525 4250 2034 4250 
z
M 2034 4750 
Q 2819 4750 3233 4129 
Q 3647 3509 3647 2328 
Q 3647 1150 3233 529 
Q 2819 -91 2034 -91 
Q 1250 -91 836 529 
Q 422 1150 422 2328 
Q 422 3509 836 4129 
Q 1250 4750 2034 4750 
z
" transform="scale(0.015625)"/>
       </defs>
       <use xlink:href="#DejaVuSans-30"/>
      </g>
     </g>
    </g>
    <g id="xtick_2">
     <g id="line2d_2">
      <g>
       <use xlink:href="#mb7f7634c8c" x="455.318182" y="458.42087" style="stroke: #000000; stroke-width: 0.8"/>
      </g>
     </g>
     <g id="text_2">
      <!-- 20 -->
      <g transform="translate(448.955682 473.019307) scale(0.1 -0.1)">
       <defs>
        <path id="DejaVuSans-32" d="M 1228 531 
L 3431 531 
L 3431 0 
L 469 0 
L 469 531 
Q 828 903 1448 1529 
Q 2069 2156 2228 2338 
Q 2531 2678 2651 2914 
Q 2772 3150 2772 3378 
Q 2772 3750 2511 3984 
Q 2250 4219 1831 4219 
Q 1534 4219 1204 4116 
Q 875 4013 500 3803 
L 500 4441 
Q 881 4594 1212 4672 
Q 1544 4750 1819 4750 
Q 2544 4750 2975 4387 
Q 3406 4025 3406 3419 
Q 3406 3131 3298 2873 
Q 3191 2616 2906 2266 
Q 2828 2175 2409 1742 
Q 1991 1309 1228 531 
z
" transform="scale(0.015625)"/>
       </defs>
       <use xlink:href="#DejaVuSans-32"/>
       <use xlink:href="#DejaVuSans-30" x="63.623047"/>
      </g>
     </g>
    </g>
    <g id="xtick_3">
     <g id="line2d_3">
      <g>
       <use xlink:href="#mb7f7634c8c" x="668.372727" y="458.42087" style="stroke: #000000; stroke-width: 0.8"/>
      </g>
     </g>
     <g id="text_3">
      <!-- 40 -->
      <g transform="translate(662.010227 473.019307) scale(0.1 -0.1)">
       <defs>
        <path id="DejaVuSans-34" d="M 2419 4116 
L 825 1625 
L 2419 1625 
L 2419 4116 
z
M 2253 4666 
L 3047 4666 
L 3047 1625 
L 3713 1625 
L 3713 1100 
L 3047 1100 
L 3047 0 
L 2419 0 
L 2419 1100 
L 313 1100 
L 313 1709 
L 2253 4666 
z
" transform="scale(0.015625)"/>
       </defs>
       <use xlink:href="#DejaVuSans-34"/>
       <use xlink:href="#DejaVuSans-30" x="63.623047"/>
      </g>
     </g>
    </g>
    <g id="xtick_4">
     <g id="line2d_4">
      <g>
       <use xlink:href="#mb7f7634c8c" x="881.427273" y="458.42087" style="stroke: #000000; stroke-width: 0.8"/>
      </g>
     </g>
     <g id="text_4">
      <!-- 60 -->
      <g transform="translate(875.064773 473.019307) scale(0.1 -0.1)">
       <defs>
        <path id="DejaVuSans-36" d="M 2113 2584 
Q 1688 2584 1439 2293 
Q 1191 2003 1191 1497 
Q 1191 994 1439 701 
Q 1688 409 2113 409 
Q 2538 409 2786 701 
Q 3034 994 3034 1497 
Q 3034 2003 2786 2293 
Q 2538 2584 2113 2584 
z
M 3366 4563 
L 3366 3988 
Q 3128 4100 2886 4159 
Q 2644 4219 2406 4219 
Q 1781 4219 1451 3797 
Q 1122 3375 1075 2522 
Q 1259 2794 1537 2939 
Q 1816 3084 2150 3084 
Q 2853 3084 3261 2657 
Q 3669 2231 3669 1497 
Q 3669 778 3244 343 
Q 2819 -91 2113 -91 
Q 1303 -91 875 529 
Q 447 1150 447 2328 
Q 447 3434 972 4092 
Q 1497 4750 2381 4750 
Q 2619 4750 2861 4703 
Q 3103 4656 3366 4563 
z
" transform="scale(0.015625)"/>
       </defs>
       <use xlink:href="#DejaVuSans-36"/>
       <use xlink:href="#DejaVuSans-30" x="63.623047"/>
      </g>
     </g>
    </g>
    <g id="xtick_5">
     <g id="line2d_5">
      <g>
       <use xlink:href="#mb7f7634c8c" x="1094.481818" y="458.42087" style="stroke: #000000; stroke-width: 0.8"/>
      </g>
     </g>
     <g id="text_5">
      <!-- 80 -->
      <g transform="translate(1088.119318 473.019307) scale(0.1 -0.1)">
       <defs>
        <path id="DejaVuSans-38" d="M 2034 2216 
Q 1584 2216 1326 1975 
Q 1069 1734 1069 1313 
Q 1069 891 1326 650 
Q 1584 409 2034 409 
Q 2484 409 2743 651 
Q 3003 894 3003 1313 
Q 3003 1734 2745 1975 
Q 2488 2216 2034 2216 
z
M 1403 2484 
Q 997 2584 770 2862 
Q 544 3141 544 3541 
Q 544 4100 942 4425 
Q 1341 4750 2034 4750 
Q 2731 4750 3128 4425 
Q 3525 4100 3525 3541 
Q 3525 3141 3298 2862 
Q 3072 2584 2669 2484 
Q 3125 2378 3379 2068 
Q 3634 1759 3634 1313 
Q 3634 634 3220 271 
Q 2806 -91 2034 -91 
Q 1263 -91 848 271 
Q 434 634 434 1313 
Q 434 1759 690 2068 
Q 947 2378 1403 2484 
z
M 1172 3481 
Q 1172 3119 1398 2916 
Q 1625 2713 2034 2713 
Q 2441 2713 2670 2916 
Q 2900 3119 2900 3481 
Q 2900 3844 2670 4047 
Q 2441 4250 2034 4250 
Q 1625 4250 1398 4047 
Q 1172 3844 1172 3481 
z
" transform="scale(0.015625)"/>
       </defs>
       <use xlink:href="#DejaVuSans-38"/>
       <use xlink:href="#DejaVuSans-30" x="63.623047"/>
      </g>
     </g>
    </g>
    <g id="xtick_6">
     <g id="line2d_6">
      <g>
       <use xlink:href="#mb7f7634c8c" x="1307.536364" y="458.42087" style="stroke: #000000; stroke-width: 0.8"/>
      </g>
     </g>
     <g id="text_6">
      <!-- 100 -->
      <g transform="translate(1297.992614 473.019307) scale(0.1 -0.1)">
       <defs>
        <path id="DejaVuSans-31" d="M 794 531 
L 1825 531 
L 1825 4091 
L 703 3866 
L 703 4441 
L 1819 4666 
L 2450 4666 
L 2450 531 
L 3481 531 
L 3481 0 
L 794 0 
L 794 531 
z
" transform="scale(0.015625)"/>
       </defs>
       <use xlink:href="#DejaVuSans-31"/>
       <use xlink:href="#DejaVuSans-30" x="63.623047"/>
       <use xlink:href="#DejaVuSans-30" x="127.246094"/>
      </g>
     </g>
    </g>
    <g id="text_7">
     <!-- Time (s) -->
     <g transform="translate(754.571094 486.697432) scale(0.1 -0.1)">
      <defs>
       <path id="DejaVuSans-54" d="M -19 4666 
L 3928 4666 
L 3928 4134 
L 2272 4134 
L 2272 0 
L 1638 0 
L 1638 4134 
L -19 4134 
L -19 4666 
z
" transform="scale(0.015625)"/>
       <path id="DejaVuSans-69" d="M 603 3500 
L 1178 3500 
L 1178 0 
L 603 0 
L 603 3500 
z
M 603 4863 
L 1178 4863 
L 1178 4134 
L 603 4134 
L 603 4863 
z
" transform="scale(0.015625)"/>
       <path id="DejaVuSans-6d" d="M 3328 2828 
Q 3544 3216 3844 3400 
Q 4144 3584 4550 3584 
Q 5097 3584 5394 3201 
Q 5691 2819 5691 2113 
L 5691 0 
L 5113 0 
L 5113 2094 
Q 5113 2597 4934 2840 
Q 4756 3084 4391 3084 
Q 3944 3084 3684 2787 
Q 3425 2491 3425 1978 
L 3425 0 
L 2847 0 
L 2847 2094 
Q 2847 2600 2669 2842 
Q 2491 3084 2119 3084 
Q 1678 3084 1418 2786 
Q 1159 2488 1159 1978 
L 1159 0 
L 581 0 
L 581 3500 
L 1159 3500 
L 1159 2956 
Q 1356 3278 1631 3431 
Q 1906 3584 2284 3584 
Q 2666 3584 2933 3390 
Q 3200 3197 3328 2828 
z
" transform="scale(0.015625)"/>
       <path id="DejaVuSans-65" d="M 3597 1894 
L 3597 1613 
L 953 1613 
Q 991 1019 1311 708 
Q 1631 397 2203 397 
Q 2534 397 2845 478 
Q 3156 559 3463 722 
L 3463 178 
Q 3153 47 2828 -22 
Q 2503 -91 2169 -91 
Q 1331 -91 842 396 
Q 353 884 353 1716 
Q 353 2575 817 3079 
Q 1281 3584 2069 3584 
Q 2775 3584 3186 3129 
Q 3597 2675 3597 1894 
z
M 3022 2063 
Q 3016 2534 2758 2815 
Q 2500 3097 2075 3097 
Q 1594 3097 1305 2825 
Q 1016 2553 972 2059 
L 3022 2063 
z
" transform="scale(0.015625)"/>
       <path id="DejaVuSans-20" transform="scale(0.015625)"/>
       <path id="DejaVuSans-28" d="M 1984 4856 
Q 1566 4138 1362 3434 
Q 1159 2731 1159 2009 
Q 1159 1288 1364 580 
Q 1569 -128 1984 -844 
L 1484 -844 
Q 1016 -109 783 600 
Q 550 1309 550 2009 
Q 550 2706 781 3412 
Q 1013 4119 1484 4856 
L 1984 4856 
z
" transform="scale(0.015625)"/>
       <path id="DejaVuSans-73" d="M 2834 3397 
L 2834 2853 
Q 2591 2978 2328 3040 
Q 2066 3103 1784 3103 
Q 1356 3103 1142 2972 
Q 928 2841 928 2578 
Q 928 2378 1081 2264 
Q 1234 2150 1697 2047 
L 1894 2003 
Q 2506 1872 2764 1633 
Q 3022 1394 3022 966 
Q 3022 478 2636 193 
Q 2250 -91 1575 -91 
Q 1294 -91 989 -36 
Q 684 19 347 128 
L 347 722 
Q 666 556 975 473 
Q 1284 391 1588 391 
Q 1994 391 2212 530 
Q 2431 669 2431 922 
Q 2431 1156 2273 1281 
Q 2116 1406 1581 1522 
L 1381 1569 
Q 847 1681 609 1914 
Q 372 2147 372 2553 
Q 372 3047 722 3315 
Q 1072 3584 1716 3584 
Q 2034 3584 2315 3537 
Q 2597 3491 2834 3397 
z
" transform="scale(0.015625)"/>
       <path id="DejaVuSans-29" d="M 513 4856 
L 1013 4856 
Q 1481 4119 1714 3412 
Q 1947 2706 1947 2009 
Q 1947 1309 1714 600 
Q 1481 -109 1013 -844 
L 513 -844 
Q 928 -128 1133 580 
Q 1338 1288 1338 2009 
Q 1338 2731 1133 3434 
Q 928 4138 513 4856 
z
" transform="scale(0.015625)"/>
      </defs>
      <use xlink:href="#DejaVuSans-54"/>
      <use xlink:href="#DejaVuSans-69" x="57.958984"/>
      <use xlink:href="#DejaVuSans-6d" x="85.742188"/>
      <use xlink:href="#DejaVuSans-65" x="183.154297"/>
      <use xlink:href="#DejaVuSans-20" x="244.677734"/>
      <use xlink:href="#DejaVuSans-28" x="276.464844"/>
      <use xlink:href="#DejaVuSans-73" x="315.478516"/>
      <use xlink:href="#DejaVuSans-29" x="367.578125"/>
     </g>
    </g>
   </g>
   <g id="matplotlib.axis_2">
    <g id="ytick_1">
     <g id="line2d_7">
      <defs>
       <path id="m730467976b" d="M 0 0 
L -3.5 0 
" style="stroke: #000000; stroke-width: 0.8"/>
      </defs>
      <g>
       <use xlink:href="#m730467976b" x="189" y="458.268997" style="stroke: #000000; stroke-width: 0.8"/>
      </g>
     </g>
     <g id="text_8">
      <!-- 0 -->
      <g transform="translate(175.6375 462.068216) scale(0.1 -0.1)">
       <use xlink:href="#DejaVuSans-30"/>
      </g>
     </g>
    </g>
    <g id="ytick_2">
     <g id="line2d_8">
      <g>
       <use xlink:href="#m730467976b" x="189" y="397.519966" style="stroke: #000000; stroke-width: 0.8"/>
      </g>
     </g>
     <g id="text_9">
      <!-- 20 -->
      <g transform="translate(169.275 401.319184) scale(0.1 -0.1)">
       <use xlink:href="#DejaVuSans-32"/>
       <use xlink:href="#DejaVuSans-30" x="63.623047"/>
      </g>
     </g>
    </g>
    <g id="ytick_3">
     <g id="line2d_9">
      <g>
       <use xlink:href="#m730467976b" x="189" y="336.770934" style="stroke: #000000; stroke-width: 0.8"/>
      </g>
     </g>
     <g id="text_10">
      <!-- 40 -->
      <g transform="translate(169.275 340.570153) scale(0.1 -0.1)">
       <use xlink:href="#DejaVuSans-34"/>
       <use xlink:href="#DejaVuSans-30" x="63.623047"/>
      </g>
     </g>
    </g>
    <g id="ytick_4">
     <g id="line2d_10">
      <g>
       <use xlink:href="#m730467976b" x="189" y="276.021903" style="stroke: #000000; stroke-width: 0.8"/>
      </g>
     </g>
     <g id="text_11">
      <!-- 60 -->
      <g transform="translate(169.275 279.821121) scale(0.1 -0.1)">
       <use xlink:href="#DejaVuSans-36"/>
       <use xlink:href="#DejaVuSans-30" x="63.623047"/>
      </g>
     </g>
    </g>
    <g id="ytick_5">
     <g id="line2d_11">
      <g>
       <use xlink:href="#m730467976b" x="189" y="215.272871" style="stroke: #000000; stroke-width: 0.8"/>
      </g>
     </g>
     <g id="text_12">
      <!-- 80 -->
      <g transform="translate(169.275 219.07209) scale(0.1 -0.1)">
       <use xlink:href="#DejaVuSans-38"/>
       <use xlink:href="#DejaVuSans-30" x="63.623047"/>
      </g>
     </g>
    </g>
    <g id="ytick_6">
     <g id="line2d_12">
      <g>
       <use xlink:href="#m730467976b" x="189" y="154.52384" style="stroke: #000000; stroke-width: 0.8"/>
      </g>
     </g>
     <g id="text_13">
      <!-- 100 -->
      <g transform="translate(162.9125 158.323059) scale(0.1 -0.1)">
       <use xlink:href="#DejaVuSans-31"/>
       <use xlink:href="#DejaVuSans-30" x="63.623047"/>
       <use xlink:href="#DejaVuSans-30" x="127.246094"/>
      </g>
     </g>
    </g>
    <g id="text_14">
     <!-- Occupied Windows -->
     <g transform="translate(156.832812 337.013091) rotate(-90) scale(0.1 -0.1)">
      <defs>
       <path id="DejaVuSans-4f" d="M 2522 4238 
Q 1834 4238 1429 3725 
Q 1025 3213 1025 2328 
Q 1025 1447 1429 934 
Q 1834 422 2522 422 
Q 3209 422 3611 934 
Q 4013 1447 4013 2328 
Q 4013 3213 3611 3725 
Q 3209 4238 2522 4238 
z
M 2522 4750 
Q 3503 4750 4090 4092 
Q 4678 3434 4678 2328 
Q 4678 1225 4090 567 
Q 3503 -91 2522 -91 
Q 1538 -91 948 565 
Q 359 1222 359 2328 
Q 359 3434 948 4092 
Q 1538 4750 2522 4750 
z
" transform="scale(0.015625)"/>
       <path id="DejaVuSans-63" d="M 3122 3366 
L 3122 2828 
Q 2878 2963 2633 3030 
Q 2388 3097 2138 3097 
Q 1578 3097 1268 2742 
Q 959 2388 959 1747 
Q 959 1106 1268 751 
Q 1578 397 2138 397 
Q 2388 397 2633 464 
Q 2878 531 3122 666 
L 3122 134 
Q 2881 22 2623 -34 
Q 2366 -91 2075 -91 
Q 1284 -91 818 406 
Q 353 903 353 1747 
Q 353 2603 823 3093 
Q 1294 3584 2113 3584 
Q 2378 3584 2631 3529 
Q 2884 3475 3122 3366 
z
" transform="scale(0.015625)"/>
       <path id="DejaVuSans-75" d="M 544 1381 
L 544 3500 
L 1119 3500 
L 1119 1403 
Q 1119 906 1312 657 
Q 1506 409 1894 409 
Q 2359 409 2629 706 
Q 2900 1003 2900 1516 
L 2900 3500 
L 3475 3500 
L 3475 0 
L 2900 0 
L 2900 538 
Q 2691 219 2414 64 
Q 2138 -91 1772 -91 
Q 1169 -91 856 284 
Q 544 659 544 1381 
z
M 1991 3584 
L 1991 3584 
z
" transform="scale(0.015625)"/>
       <path id="DejaVuSans-70" d="M 1159 525 
L 1159 -1331 
L 581 -1331 
L 581 3500 
L 1159 3500 
L 1159 2969 
Q 1341 3281 1617 3432 
Q 1894 3584 2278 3584 
Q 2916 3584 3314 3078 
Q 3713 2572 3713 1747 
Q 3713 922 3314 415 
Q 2916 -91 2278 -91 
Q 1894 -91 1617 61 
Q 1341 213 1159 525 
z
M 3116 1747 
Q 3116 2381 2855 2742 
Q 2594 3103 2138 3103 
Q 1681 3103 1420 2742 
Q 1159 2381 1159 1747 
Q 1159 1113 1420 752 
Q 1681 391 2138 391 
Q 2594 391 2855 752 
Q 3116 1113 3116 1747 
z
" transform="scale(0.015625)"/>
       <path id="DejaVuSans-64" d="M 2906 2969 
L 2906 4863 
L 3481 4863 
L 3481 0 
L 2906 0 
L 2906 525 
Q 2725 213 2448 61 
Q 2172 -91 1784 -91 
Q 1150 -91 751 415 
Q 353 922 353 1747 
Q 353 2572 751 3078 
Q 1150 3584 1784 3584 
Q 2172 3584 2448 3432 
Q 2725 3281 2906 2969 
z
M 947 1747 
Q 947 1113 1208 752 
Q 1469 391 1925 391 
Q 2381 391 2643 752 
Q 2906 1113 2906 1747 
Q 2906 2381 2643 2742 
Q 2381 3103 1925 3103 
Q 1469 3103 1208 2742 
Q 947 2381 947 1747 
z
" transform="scale(0.015625)"/>
       <path id="DejaVuSans-57" d="M 213 4666 
L 850 4666 
L 1831 722 
L 2809 4666 
L 3519 4666 
L 4500 722 
L 5478 4666 
L 6119 4666 
L 4947 0 
L 4153 0 
L 3169 4050 
L 2175 0 
L 1381 0 
L 213 4666 
z
" transform="scale(0.015625)"/>
       <path id="DejaVuSans-6e" d="M 3513 2113 
L 3513 0 
L 2938 0 
L 2938 2094 
Q 2938 2591 2744 2837 
Q 2550 3084 2163 3084 
Q 1697 3084 1428 2787 
Q 1159 2491 1159 1978 
L 1159 0 
L 581 0 
L 581 3500 
L 1159 3500 
L 1159 2956 
Q 1366 3272 1645 3428 
Q 1925 3584 2291 3584 
Q 2894 3584 3203 3211 
Q 3513 2838 3513 2113 
z
" transform="scale(0.015625)"/>
       <path id="DejaVuSans-6f" d="M 1959 3097 
Q 1497 3097 1228 2736 
Q 959 2375 959 1747 
Q 959 1119 1226 758 
Q 1494 397 1959 397 
Q 2419 397 2687 759 
Q 2956 1122 2956 1747 
Q 2956 2369 2687 2733 
Q 2419 3097 1959 3097 
z
M 1959 3584 
Q 2709 3584 3137 3096 
Q 3566 2609 3566 1747 
Q 3566 888 3137 398 
Q 2709 -91 1959 -91 
Q 1206 -91 779 398 
Q 353 888 353 1747 
Q 353 2609 779 3096 
Q 1206 3584 1959 3584 
z
" transform="scale(0.015625)"/>
       <path id="DejaVuSans-77" d="M 269 3500 
L 844 3500 
L 1563 769 
L 2278 3500 
L 2956 3500 
L 3675 769 
L 4391 3500 
L 4966 3500 
L 4050 0 
L 3372 0 
L 2619 2869 
L 1863 0 
L 1184 0 
L 269 3500 
z
" transform="scale(0.015625)"/>
      </defs>
      <use xlink:href="#DejaVuSans-4f"/>
      <use xlink:href="#DejaVuSans-63" x="78.710938"/>
      <use xlink:href="#DejaVuSans-63" x="133.691406"/>
      <use xlink:href="#DejaVuSans-75" x="188.671875"/>
      <use xlink:href="#DejaVuSans-70" x="252.050781"/>
      <use xlink:href="#DejaVuSans-69" x="315.527344"/>
      <use xlink:href="#DejaVuSans-65" x="343.310547"/>
      <use xlink:href="#DejaVuSans-64" x="404.833984"/>
      <use xlink:href="#DejaVuSans-20" x="468.310547"/>
      <use xlink:href="#DejaVuSans-57" x="500.097656"/>
      <use xlink:href="#DejaVuSans-69" x="596.724609"/>
      <use xlink:href="#DejaVuSans-6e" x="624.507812"/>
      <use xlink:href="#DejaVuSans-64" x="687.886719"/>
      <use xlink:href="#DejaVuSans-6f" x="751.363281"/>
      <use xlink:href="#DejaVuSans-77" x="812.544922"/>
      <use xlink:href="#DejaVuSans-73" x="894.332031"/>
     </g>
    </g>
   </g>
   <g id="line2d_13">
    <path d="M 242.263636 136.29913 
L 252.916364 136.29913 
L 252.916364 139.336582 
L 263.569091 139.336582 
L 263.569091 190.973259 
L 274.221818 190.973259 
L 274.221818 209.197968 
L 284.874545 209.197968 
L 284.874545 136.29913 
L 295.527273 136.29913 
L 295.527273 178.823452 
L 316.832727 178.823452 
L 316.832727 197.048162 
L 327.485455 197.048162 
L 327.485455 184.898356 
L 338.138182 184.898356 
L 338.138182 160.598743 
L 348.790909 160.598743 
L 348.790909 154.52384 
L 359.443636 154.52384 
L 359.443636 139.336582 
L 370.096364 139.336582 
L 370.096364 245.647387 
L 380.749091 245.647387 
L 380.749091 142.374034 
L 391.401818 142.374034 
L 391.401818 215.272871 
L 402.054545 215.272871 
L 402.054545 288.171709 
L 412.707273 288.171709 
L 412.707273 154.52384 
L 423.36 154.52384 
L 423.36 178.823452 
L 434.012727 178.823452 
L 434.012727 142.374034 
L 444.665455 142.374034 
L 444.665455 239.572484 
L 455.318182 239.572484 
L 455.318182 169.711098 
L 465.970909 169.711098 
L 465.970909 136.29913 
L 476.623636 136.29913 
L 476.623636 163.636195 
L 487.276364 163.636195 
L 487.276364 154.52384 
L 497.929091 154.52384 
L 497.929091 166.673646 
L 508.581818 166.673646 
L 508.581818 148.448937 
L 519.234545 148.448937 
L 519.234545 169.711098 
L 529.887273 169.711098 
L 529.887273 178.823452 
L 540.54 178.823452 
L 540.54 215.272871 
L 551.192727 215.272871 
L 551.192727 166.673646 
L 561.845455 166.673646 
L 561.845455 257.797193 
L 572.498182 257.797193 
L 572.498182 166.673646 
L 583.150909 166.673646 
L 583.150909 184.898356 
L 593.803636 184.898356 
L 593.803636 166.673646 
L 604.456364 166.673646 
L 604.456364 233.497581 
L 615.109091 233.497581 
L 615.109091 136.29913 
L 625.761818 136.29913 
L 625.761818 145.411485 
L 636.414545 145.411485 
L 636.414545 163.636195 
L 647.067273 163.636195 
L 647.067273 148.448937 
L 657.72 148.448937 
L 657.72 233.497581 
L 668.372727 233.497581 
L 668.372727 163.636195 
L 679.025455 163.636195 
L 679.025455 136.29913 
L 689.678182 136.29913 
L 689.678182 160.598743 
L 700.330909 160.598743 
L 700.330909 227.422678 
L 710.983636 227.422678 
L 710.983636 163.636195 
L 721.636364 163.636195 
L 721.636364 294.246612 
L 732.289091 294.246612 
L 732.289091 142.374034 
L 742.941818 142.374034 
L 742.941818 215.272871 
L 753.594545 215.272871 
L 753.594545 169.711098 
L 764.247273 169.711098 
L 764.247273 197.048162 
L 774.9 197.048162 
L 774.9 318.546225 
L 785.552727 318.546225 
L 785.552727 178.823452 
L 806.858182 178.823452 
L 806.858182 166.673646 
L 817.510909 166.673646 
L 817.510909 206.160517 
L 828.163636 206.160517 
L 828.163636 166.673646 
L 838.816364 166.673646 
L 838.816364 221.347774 
L 849.469091 221.347774 
L 849.469091 166.673646 
L 860.121818 166.673646 
L 860.121818 227.422678 
L 870.774545 227.422678 
L 870.774545 154.52384 
L 881.427273 154.52384 
L 881.427273 227.422678 
L 892.08 227.422678 
L 892.08 136.29913 
L 902.732727 136.29913 
L 902.732727 178.823452 
L 913.385455 178.823452 
L 913.385455 282.096806 
L 924.038182 282.096806 
L 924.038182 306.396418 
L 934.690909 306.396418 
L 934.690909 154.52384 
L 945.343636 154.52384 
L 945.343636 151.486388 
L 955.996364 151.486388 
L 955.996364 215.272871 
L 966.649091 215.272871 
L 966.649091 169.711098 
L 977.301818 169.711098 
L 977.301818 190.973259 
L 987.954545 190.973259 
L 987.954545 233.497581 
L 998.607273 233.497581 
L 998.607273 178.823452 
L 1009.26 178.823452 
L 1009.26 136.29913 
L 1019.912727 136.29913 
L 1019.912727 172.748549 
L 1030.565455 172.748549 
L 1030.565455 178.823452 
L 1041.218182 178.823452 
L 1041.218182 148.448937 
L 1051.870909 148.448937 
L 1051.870909 251.72229 
L 1062.523636 251.72229 
L 1062.523636 148.448937 
L 1073.176364 148.448937 
L 1073.176364 178.823452 
L 1083.829091 178.823452 
L 1083.829091 160.598743 
L 1094.481818 160.598743 
L 1094.481818 245.647387 
L 1105.134545 245.647387 
L 1105.134545 142.374034 
L 1115.787273 142.374034 
L 1115.787273 245.647387 
L 1126.44 245.647387 
L 1126.44 148.448937 
L 1137.092727 148.448937 
L 1137.092727 184.898356 
L 1147.745455 184.898356 
L 1147.745455 154.52384 
L 1158.398182 154.52384 
L 1158.398182 203.123065 
L 1169.050909 203.123065 
L 1169.050909 178.823452 
L 1179.703636 178.823452 
L 1179.703636 145.411485 
L 1190.356364 145.411485 
L 1190.356364 178.823452 
L 1201.009091 178.823452 
L 1201.009091 160.598743 
L 1211.661818 160.598743 
L 1211.661818 148.448937 
L 1222.314545 148.448937 
L 1222.314545 209.197968 
L 1232.967273 209.197968 
L 1232.967273 136.29913 
L 1254.272727 136.29913 
L 1254.272727 148.448937 
L 1264.925455 148.448937 
L 1264.925455 139.336582 
L 1275.578182 139.336582 
L 1275.578182 157.561291 
L 1286.230909 157.561291 
L 1286.230909 239.572484 
L 1296.883636 239.572484 
L 1296.883636 160.598743 
L 1307.536364 160.598743 
L 1307.536364 160.598743 
" clip-path="url(#paa548d127a)" style="fill: none; stroke: #0000ff; stroke-width: 1.5; stroke-linecap: square"/>
   </g>
   <g id="line2d_14">
    <path d="M 242.263636 443.081739 
L 1307.536364 443.081739 
L 1307.536364 443.081739 
" clip-path="url(#paa548d127a)" style="fill: none; stroke: #ff0000; stroke-width: 1.5; stroke-linecap: square"/>
   </g>
   <g id="line2d_15">
    <path d="M 242.263636 443.081739 
L 1307.536364 443.081739 
L 1307.536364 443.081739 
" clip-path="url(#paa548d127a)" style="fill: none; stroke: #008000; stroke-width: 1.5; stroke-linecap: square"/>
   </g>
   <g id="patch_3">
    <path d="M 189 458.42087 
L 189 120.96 
" style="fill: none; stroke: #000000; stroke-width: 0.8; stroke-linejoin: miter; stroke-linecap: square"/>
   </g>
   <g id="patch_4">
    <path d="M 1360.8 458.42087 
L 1360.8 120.96 
" style="fill: none; stroke: #000000; stroke-width: 0.8; stroke-linejoin: miter; stroke-linecap: square"/>
   </g>
   <g id="patch_5">
    <path d="M 189 458.42087 
L 1360.8 458.42087 
" style="fill: none; stroke: #000000; stroke-width: 0.8; stroke-linejoin: miter; stroke-linecap: square"/>
   </g>
   <g id="patch_6">
    <path d="M 189 120.96 
L 1360.8 120.96 
" style="fill: none; stroke: #000000; stroke-width: 0.8; stroke-linejoin: miter; stroke-linecap: square"/>
   </g>
   <g id="text_15">
    <!-- Offloading units -->
    <g transform="translate(727.193437 114.96) scale(0.12 -0.12)">
     <defs>
      <path id="DejaVuSans-66" d="M 2375 4863 
L 2375 4384 
L 1825 4384 
Q 1516 4384 1395 4259 
Q 1275 4134 1275 3809 
L 1275 3500 
L 2222 3500 
L 2222 3053 
L 1275 3053 
L 1275 0 
L 697 0 
L 697 3053 
L 147 3053 
L 147 3500 
L 697 3500 
L 697 3744 
Q 697 4328 969 4595 
Q 1241 4863 1831 4863 
L 2375 4863 
z
" transform="scale(0.015625)"/>
      <path id="DejaVuSans-6c" d="M 603 4863 
L 1178 4863 
L 1178 0 
L 603 0 
L 603 4863 
z
" transform="scale(0.015625)"/>
      <path id="DejaVuSans-61" d="M 2194 1759 
Q 1497 1759 1228 1600 
Q 959 1441 959 1056 
Q 959 750 1161 570 
Q 1363 391 1709 391 
Q 2188 391 2477 730 
Q 2766 1069 2766 1631 
L 2766 1759 
L 2194 1759 
z
M 3341 1997 
L 3341 0 
L 2766 0 
L 2766 531 
Q 2569 213 2275 61 
Q 1981 -91 1556 -91 
Q 1019 -91 701 211 
Q 384 513 384 1019 
Q 384 1609 779 1909 
Q 1175 2209 1959 2209 
L 2766 2209 
L 2766 2266 
Q 2766 2663 2505 2880 
Q 2244 3097 1772 3097 
Q 1472 3097 1187 3025 
Q 903 2953 641 2809 
L 641 3341 
Q 956 3463 1253 3523 
Q 1550 3584 1831 3584 
Q 2591 3584 2966 3190 
Q 3341 2797 3341 1997 
z
" transform="scale(0.015625)"/>
      <path id="DejaVuSans-67" d="M 2906 1791 
Q 2906 2416 2648 2759 
Q 2391 3103 1925 3103 
Q 1463 3103 1205 2759 
Q 947 2416 947 1791 
Q 947 1169 1205 825 
Q 1463 481 1925 481 
Q 2391 481 2648 825 
Q 2906 1169 2906 1791 
z
M 3481 434 
Q 3481 -459 3084 -895 
Q 2688 -1331 1869 -1331 
Q 1566 -1331 1297 -1286 
Q 1028 -1241 775 -1147 
L 775 -588 
Q 1028 -725 1275 -790 
Q 1522 -856 1778 -856 
Q 2344 -856 2625 -561 
Q 2906 -266 2906 331 
L 2906 616 
Q 2728 306 2450 153 
Q 2172 0 1784 0 
Q 1141 0 747 490 
Q 353 981 353 1791 
Q 353 2603 747 3093 
Q 1141 3584 1784 3584 
Q 2172 3584 2450 3431 
Q 2728 3278 2906 2969 
L 2906 3500 
L 3481 3500 
L 3481 434 
z
" transform="scale(0.015625)"/>
      <path id="DejaVuSans-74" d="M 1172 4494 
L 1172 3500 
L 2356 3500 
L 2356 3053 
L 1172 3053 
L 1172 1153 
Q 1172 725 1289 603 
Q 1406 481 1766 481 
L 2356 481 
L 2356 0 
L 1766 0 
Q 1100 0 847 248 
Q 594 497 594 1153 
L 594 3053 
L 172 3053 
L 172 3500 
L 594 3500 
L 594 4494 
L 1172 4494 
z
" transform="scale(0.015625)"/>
     </defs>
     <use xlink:href="#DejaVuSans-4f"/>
     <use xlink:href="#DejaVuSans-66" x="78.710938"/>
     <use xlink:href="#DejaVuSans-66" x="113.916016"/>
     <use xlink:href="#DejaVuSans-6c" x="149.121094"/>
     <use xlink:href="#DejaVuSans-6f" x="176.904297"/>
     <use xlink:href="#DejaVuSans-61" x="238.085938"/>
     <use xlink:href="#DejaVuSans-64" x="299.365234"/>
     <use xlink:href="#DejaVuSans-69" x="362.841797"/>
     <use xlink:href="#DejaVuSans-6e" x="390.625"/>
     <use xlink:href="#DejaVuSans-67" x="454.003906"/>
     <use xlink:href="#DejaVuSans-20" x="517.480469"/>
     <use xlink:href="#DejaVuSans-75" x="549.267578"/>
     <use xlink:href="#DejaVuSans-6e" x="612.646484"/>
     <use xlink:href="#DejaVuSans-69" x="676.025391"/>
     <use xlink:href="#DejaVuSans-74" x="703.808594"/>
     <use xlink:href="#DejaVuSans-73" x="743.017578"/>
    </g>
   </g>
   <g id="legend_1">
    <g id="patch_7">
     <path d="M 1275.494062 193.808125 
L 1351 193.808125 
Q 1353.8 193.808125 1353.8 191.008125 
L 1353.8 130.76 
Q 1353.8 127.96 1351 127.96 
L 1275.494062 127.96 
Q 1272.694062 127.96 1272.694062 130.76 
L 1272.694062 191.008125 
Q 1272.694062 193.808125 1275.494062 193.808125 
z
" style="fill: #ffffff; opacity: 0.8; stroke: #cccccc; stroke-linejoin: miter"/>
    </g>
    <g id="line2d_16">
     <path d="M 1278.294062 139.297813 
L 1292.294062 139.297813 
L 1292.294062 139.297813 
L 1306.294062 139.297813 
L 1306.294062 139.297813 
" style="fill: none; stroke: #0000ff; stroke-width: 1.5; stroke-linecap: square"/>
    </g>
    <g id="text_16">
     <!-- P1 -->
     <g transform="translate(1317.494062 144.197813) scale(0.14 -0.14)">
      <defs>
       <path id="DejaVuSans-50" d="M 1259 4147 
L 1259 2394 
L 2053 2394 
Q 2494 2394 2734 2622 
Q 2975 2850 2975 3272 
Q 2975 3691 2734 3919 
Q 2494 4147 2053 4147 
L 1259 4147 
z
M 628 4666 
L 2053 4666 
Q 2838 4666 3239 4311 
Q 3641 3956 3641 3272 
Q 3641 2581 3239 2228 
Q 2838 1875 2053 1875 
L 1259 1875 
L 1259 0 
L 628 0 
L 628 4666 
z
" transform="scale(0.015625)"/>
      </defs>
      <use xlink:href="#DejaVuSans-50"/>
      <use xlink:href="#DejaVuSans-31" x="60.302734"/>
     </g>
    </g>
    <g id="line2d_17">
     <path d="M 1278.294062 159.847188 
L 1292.294062 159.847188 
L 1292.294062 159.847188 
L 1306.294062 159.847188 
L 1306.294062 159.847188 
" style="fill: none; stroke: #ff0000; stroke-width: 1.5; stroke-linecap: square"/>
    </g>
    <g id="text_17">
     <!-- P1.1 -->
     <g transform="translate(1317.494062 164.747188) scale(0.14 -0.14)">
      <defs>
       <path id="DejaVuSans-2e" d="M 684 794 
L 1344 794 
L 1344 0 
L 684 0 
L 684 794 
z
" transform="scale(0.015625)"/>
      </defs>
      <use xlink:href="#DejaVuSans-50"/>
      <use xlink:href="#DejaVuSans-31" x="60.302734"/>
      <use xlink:href="#DejaVuSans-2e" x="123.925781"/>
      <use xlink:href="#DejaVuSans-31" x="155.712891"/>
     </g>
    </g>
    <g id="line2d_18">
     <path d="M 1278.294062 180.396563 
L 1292.294062 180.396563 
L 1292.294062 180.396563 
L 1306.294062 180.396563 
L 1306.294062 180.396563 
" style="fill: none; stroke: #008000; stroke-width: 1.5; stroke-linecap: square"/>
    </g>
    <g id="text_18">
     <!-- P1.2 -->
     <g transform="translate(1317.494062 185.296563) scale(0.14 -0.14)">
      <use xlink:href="#DejaVuSans-50"/>
      <use xlink:href="#DejaVuSans-31" x="60.302734"/>
      <use xlink:href="#DejaVuSans-2e" x="123.925781"/>
      <use xlink:href="#DejaVuSans-32" x="155.712891"/>
     </g>
    </g>
   </g>
  </g>
  <g id="axes_2">
   <g id="patch_8">
    <path d="M 189 897.12 
L 1360.8 897.12 
L 1360.8 559.65913 
L 189 559.65913 
z
" style="fill: #ffffff"/>
   </g>
   <g id="matplotlib.axis_3">
    <g id="xtick_7">
     <g id="line2d_19">
      <g>
       <use xlink:href="#mb7f7634c8c" x="242.263636" y="897.12" style="stroke: #000000; stroke-width: 0.8"/>
      </g>
     </g>
     <g id="text_19">
      <!-- 0 -->
      <g transform="translate(239.082386 911.718438) scale(0.1 -0.1)">
       <use xlink:href="#DejaVuSans-30"/>
      </g>
     </g>
    </g>
    <g id="xtick_8">
     <g id="line2d_20">
      <g>
       <use xlink:href="#mb7f7634c8c" x="455.318182" y="897.12" style="stroke: #000000; stroke-width: 0.8"/>
      </g>
     </g>
     <g id="text_20">
      <!-- 20 -->
      <g transform="translate(448.955682 911.718438) scale(0.1 -0.1)">
       <use xlink:href="#DejaVuSans-32"/>
       <use xlink:href="#DejaVuSans-30" x="63.623047"/>
      </g>
     </g>
    </g>
    <g id="xtick_9">
     <g id="line2d_21">
      <g>
       <use xlink:href="#mb7f7634c8c" x="668.372727" y="897.12" style="stroke: #000000; stroke-width: 0.8"/>
      </g>
     </g>
     <g id="text_21">
      <!-- 40 -->
      <g transform="translate(662.010227 911.718438) scale(0.1 -0.1)">
       <use xlink:href="#DejaVuSans-34"/>
       <use xlink:href="#DejaVuSans-30" x="63.623047"/>
      </g>
     </g>
    </g>
    <g id="xtick_10">
     <g id="line2d_22">
      <g>
       <use xlink:href="#mb7f7634c8c" x="881.427273" y="897.12" style="stroke: #000000; stroke-width: 0.8"/>
      </g>
     </g>
     <g id="text_22">
      <!-- 60 -->
      <g transform="translate(875.064773 911.718438) scale(0.1 -0.1)">
       <use xlink:href="#DejaVuSans-36"/>
       <use xlink:href="#DejaVuSans-30" x="63.623047"/>
      </g>
     </g>
    </g>
    <g id="xtick_11">
     <g id="line2d_23">
      <g>
       <use xlink:href="#mb7f7634c8c" x="1094.481818" y="897.12" style="stroke: #000000; stroke-width: 0.8"/>
      </g>
     </g>
     <g id="text_23">
      <!-- 80 -->
      <g transform="translate(1088.119318 911.718438) scale(0.1 -0.1)">
       <use xlink:href="#DejaVuSans-38"/>
       <use xlink:href="#DejaVuSans-30" x="63.623047"/>
      </g>
     </g>
    </g>
    <g id="xtick_12">
     <g id="line2d_24">
      <g>
       <use xlink:href="#mb7f7634c8c" x="1307.536364" y="897.12" style="stroke: #000000; stroke-width: 0.8"/>
      </g>
     </g>
     <g id="text_24">
      <!-- 100 -->
      <g transform="translate(1297.992614 911.718438) scale(0.1 -0.1)">
       <use xlink:href="#DejaVuSans-31"/>
       <use xlink:href="#DejaVuSans-30" x="63.623047"/>
       <use xlink:href="#DejaVuSans-30" x="127.246094"/>
      </g>
     </g>
    </g>
    <g id="text_25">
     <!-- Time (s) -->
     <g transform="translate(754.571094 925.396563) scale(0.1 -0.1)">
      <use xlink:href="#DejaVuSans-54"/>
      <use xlink:href="#DejaVuSans-69" x="57.958984"/>
      <use xlink:href="#DejaVuSans-6d" x="85.742188"/>
      <use xlink:href="#DejaVuSans-65" x="183.154297"/>
      <use xlink:href="#DejaVuSans-20" x="244.677734"/>
      <use xlink:href="#DejaVuSans-28" x="276.464844"/>
      <use xlink:href="#DejaVuSans-73" x="315.478516"/>
      <use xlink:href="#DejaVuSans-29" x="367.578125"/>
     </g>
    </g>
   </g>
   <g id="matplotlib.axis_4">
    <g id="ytick_7">
     <g id="line2d_25">
      <g>
       <use xlink:href="#m730467976b" x="189" y="847.693913" style="stroke: #000000; stroke-width: 0.8"/>
      </g>
     </g>
     <g id="text_26">
      <!-- 20 -->
      <g transform="translate(169.275 851.493132) scale(0.1 -0.1)">
       <use xlink:href="#DejaVuSans-32"/>
       <use xlink:href="#DejaVuSans-30" x="63.623047"/>
      </g>
     </g>
    </g>
    <g id="ytick_8">
     <g id="line2d_26">
      <g>
       <use xlink:href="#m730467976b" x="189" y="785.717628" style="stroke: #000000; stroke-width: 0.8"/>
      </g>
     </g>
     <g id="text_27">
      <!-- 40 -->
      <g transform="translate(169.275 789.516847) scale(0.1 -0.1)">
       <use xlink:href="#DejaVuSans-34"/>
       <use xlink:href="#DejaVuSans-30" x="63.623047"/>
      </g>
     </g>
    </g>
    <g id="ytick_9">
     <g id="line2d_27">
      <g>
       <use xlink:href="#m730467976b" x="189" y="723.741344" style="stroke: #000000; stroke-width: 0.8"/>
      </g>
     </g>
     <g id="text_28">
      <!-- 60 -->
      <g transform="translate(169.275 727.540563) scale(0.1 -0.1)">
       <use xlink:href="#DejaVuSans-36"/>
       <use xlink:href="#DejaVuSans-30" x="63.623047"/>
      </g>
     </g>
    </g>
    <g id="ytick_10">
     <g id="line2d_28">
      <g>
       <use xlink:href="#m730467976b" x="189" y="661.765059" style="stroke: #000000; stroke-width: 0.8"/>
      </g>
     </g>
     <g id="text_29">
      <!-- 80 -->
      <g transform="translate(169.275 665.564278) scale(0.1 -0.1)">
       <use xlink:href="#DejaVuSans-38"/>
       <use xlink:href="#DejaVuSans-30" x="63.623047"/>
      </g>
     </g>
    </g>
    <g id="ytick_11">
     <g id="line2d_29">
      <g>
       <use xlink:href="#m730467976b" x="189" y="599.788775" style="stroke: #000000; stroke-width: 0.8"/>
      </g>
     </g>
     <g id="text_30">
      <!-- 100 -->
      <g transform="translate(162.9125 603.587993) scale(0.1 -0.1)">
       <use xlink:href="#DejaVuSans-31"/>
       <use xlink:href="#DejaVuSans-30" x="63.623047"/>
       <use xlink:href="#DejaVuSans-30" x="127.246094"/>
      </g>
     </g>
    </g>
    <g id="text_31">
     <!-- Occupied Windows -->
     <g transform="translate(156.832812 775.712221) rotate(-90) scale(0.1 -0.1)">
      <use xlink:href="#DejaVuSans-4f"/>
      <use xlink:href="#DejaVuSans-63" x="78.710938"/>
      <use xlink:href="#DejaVuSans-63" x="133.691406"/>
      <use xlink:href="#DejaVuSans-75" x="188.671875"/>
      <use xlink:href="#DejaVuSans-70" x="252.050781"/>
      <use xlink:href="#DejaVuSans-69" x="315.527344"/>
      <use xlink:href="#DejaVuSans-65" x="343.310547"/>
      <use xlink:href="#DejaVuSans-64" x="404.833984"/>
      <use xlink:href="#DejaVuSans-20" x="468.310547"/>
      <use xlink:href="#DejaVuSans-57" x="500.097656"/>
      <use xlink:href="#DejaVuSans-69" x="596.724609"/>
      <use xlink:href="#DejaVuSans-6e" x="624.507812"/>
      <use xlink:href="#DejaVuSans-64" x="687.886719"/>
      <use xlink:href="#DejaVuSans-6f" x="751.363281"/>
      <use xlink:href="#DejaVuSans-77" x="812.544922"/>
      <use xlink:href="#DejaVuSans-73" x="894.332031"/>
     </g>
    </g>
   </g>
   <g id="line2d_30">
    <path d="M 242.263636 878.682055 
L 1307.536364 878.682055 
L 1307.536364 878.682055 
" clip-path="url(#p8800134be5)" style="fill: none; stroke: #1f77b4; stroke-width: 1.5; stroke-linecap: square"/>
   </g>
   <g id="line2d_31">
    <path d="M 242.263636 878.682055 
L 1307.536364 878.682055 
L 1307.536364 878.682055 
" clip-path="url(#p8800134be5)" style="fill: none; stroke: #ff7f0e; stroke-width: 1.5; stroke-linecap: square"/>
   </g>
   <g id="line2d_32">
    <path d="M 242.263636 878.682055 
L 1307.536364 878.682055 
L 1307.536364 878.682055 
" clip-path="url(#p8800134be5)" style="fill: none; stroke: #2ca02c; stroke-width: 1.5; stroke-linecap: square"/>
   </g>
   <g id="line2d_33">
    <path d="M 242.263636 878.682055 
L 817.510909 878.682055 
L 817.510909 881.78087 
L 828.163636 881.78087 
L 828.163636 878.682055 
L 1307.536364 878.682055 
L 1307.536364 878.682055 
" clip-path="url(#p8800134be5)" style="fill: none; stroke: #d62728; stroke-width: 1.5; stroke-linecap: square"/>
   </g>
   <g id="line2d_34">
    <path d="M 242.263636 863.187984 
L 1307.536364 863.187984 
L 1307.536364 863.187984 
" clip-path="url(#p8800134be5)" style="fill: none; stroke: #ff0000; stroke-width: 1.5; stroke-linecap: square"/>
   </g>
   <g id="line2d_35">
    <path d="M 242.263636 863.187984 
L 1307.536364 863.187984 
L 1307.536364 863.187984 
" clip-path="url(#p8800134be5)" style="fill: none; stroke: #008000; stroke-width: 1.5; stroke-linecap: square"/>
   </g>
   <g id="line2d_36">
    <path d="M 242.263636 621.480474 
L 252.916364 621.480474 
L 252.916364 615.282846 
L 263.569091 615.282846 
L 263.569091 649.369802 
L 274.221818 649.369802 
L 274.221818 658.666245 
L 284.874545 658.666245 
L 284.874545 618.38166 
L 295.527273 618.38166 
L 295.527273 643.172174 
L 316.832727 643.172174 
L 316.832727 652.468617 
L 327.485455 652.468617 
L 327.485455 646.270988 
L 338.138182 646.270988 
L 338.138182 633.875731 
L 348.790909 633.875731 
L 348.790909 630.776917 
L 359.443636 630.776917 
L 359.443636 615.282846 
L 370.096364 615.282846 
L 370.096364 677.25913 
L 380.749091 677.25913 
L 380.749091 624.579289 
L 391.401818 624.579289 
L 391.401818 661.765059 
L 402.054545 661.765059 
L 402.054545 698.95083 
L 412.707273 698.95083 
L 412.707273 630.776917 
L 423.36 630.776917 
L 423.36 643.172174 
L 434.012727 643.172174 
L 434.012727 624.579289 
L 444.665455 624.579289 
L 444.665455 674.160316 
L 455.318182 674.160316 
L 455.318182 584.294704 
L 465.970909 584.294704 
L 465.970909 618.38166 
L 476.623636 618.38166 
L 476.623636 590.492332 
L 487.276364 590.492332 
L 487.276364 599.788775 
L 497.929091 599.788775 
L 497.929091 636.974545 
L 508.581818 636.974545 
L 508.581818 627.678103 
L 519.234545 627.678103 
L 519.234545 584.294704 
L 529.887273 584.294704 
L 529.887273 574.998261 
L 540.54 574.998261 
L 540.54 661.765059 
L 551.192727 661.765059 
L 551.192727 636.974545 
L 561.845455 636.974545 
L 561.845455 683.456759 
L 572.498182 683.456759 
L 572.498182 587.393518 
L 583.150909 587.393518 
L 583.150909 646.270988 
L 593.803636 646.270988 
L 593.803636 636.974545 
L 604.456364 636.974545 
L 604.456364 671.061502 
L 615.109091 671.061502 
L 615.109091 621.480474 
L 625.761818 621.480474 
L 625.761818 609.085217 
L 636.414545 609.085217 
L 636.414545 590.492332 
L 647.067273 590.492332 
L 647.067273 627.678103 
L 657.72 627.678103 
L 657.72 671.061502 
L 668.372727 671.061502 
L 668.372727 590.492332 
L 679.025455 590.492332 
L 679.025455 618.38166 
L 689.678182 618.38166 
L 689.678182 633.875731 
L 700.330909 633.875731 
L 700.330909 667.962688 
L 710.983636 667.962688 
L 710.983636 590.492332 
L 721.636364 590.492332 
L 721.636364 702.049644 
L 732.289091 702.049644 
L 732.289091 612.184032 
L 742.941818 612.184032 
L 742.941818 661.765059 
L 753.594545 661.765059 
L 753.594545 584.294704 
L 764.247273 584.294704 
L 764.247273 652.468617 
L 774.9 652.468617 
L 774.9 714.444901 
L 785.552727 714.444901 
L 785.552727 643.172174 
L 796.205455 643.172174 
L 796.205455 574.998261 
L 806.858182 574.998261 
L 806.858182 636.974545 
L 817.510909 636.974545 
L 817.510909 658.666245 
L 828.163636 658.666245 
L 828.163636 587.393518 
L 838.816364 587.393518 
L 838.816364 664.863874 
L 849.469091 664.863874 
L 849.469091 636.974545 
L 860.121818 636.974545 
L 860.121818 667.962688 
L 870.774545 667.962688 
L 870.774545 599.788775 
L 881.427273 599.788775 
L 881.427273 667.962688 
L 892.08 667.962688 
L 892.08 618.38166 
L 902.732727 618.38166 
L 902.732727 643.172174 
L 913.385455 643.172174 
L 913.385455 695.852016 
L 924.038182 695.852016 
L 924.038182 708.247273 
L 934.690909 708.247273 
L 934.690909 630.776917 
L 945.343636 630.776917 
L 945.343636 602.887589 
L 955.996364 602.887589 
L 955.996364 661.765059 
L 966.649091 661.765059 
L 966.649091 584.294704 
L 977.301818 584.294704 
L 977.301818 649.369802 
L 987.954545 649.369802 
L 987.954545 671.061502 
L 998.607273 671.061502 
L 998.607273 643.172174 
L 1009.26 643.172174 
L 1009.26 618.38166 
L 1019.912727 618.38166 
L 1019.912727 640.07336 
L 1030.565455 640.07336 
L 1030.565455 643.172174 
L 1041.218182 643.172174 
L 1041.218182 627.678103 
L 1051.870909 627.678103 
L 1051.870909 680.357945 
L 1062.523636 680.357945 
L 1062.523636 627.678103 
L 1073.176364 627.678103 
L 1073.176364 574.998261 
L 1083.829091 574.998261 
L 1083.829091 633.875731 
L 1094.481818 633.875731 
L 1094.481818 677.25913 
L 1105.134545 677.25913 
L 1105.134545 624.579289 
L 1115.787273 624.579289 
L 1115.787273 677.25913 
L 1126.44 677.25913 
L 1126.44 627.678103 
L 1137.092727 627.678103 
L 1137.092727 646.270988 
L 1147.745455 646.270988 
L 1147.745455 630.776917 
L 1158.398182 630.776917 
L 1158.398182 655.567431 
L 1169.050909 655.567431 
L 1169.050909 643.172174 
L 1179.703636 643.172174 
L 1179.703636 609.085217 
L 1190.356364 609.085217 
L 1190.356364 574.998261 
L 1201.009091 574.998261 
L 1201.009091 633.875731 
L 1211.661818 633.875731 
L 1211.661818 605.986403 
L 1222.314545 605.986403 
L 1222.314545 658.666245 
L 1232.967273 658.666245 
L 1232.967273 621.480474 
L 1254.272727 621.480474 
L 1254.272727 605.986403 
L 1264.925455 605.986403 
L 1264.925455 615.282846 
L 1275.578182 615.282846 
L 1275.578182 596.68996 
L 1286.230909 596.68996 
L 1286.230909 674.160316 
L 1296.883636 674.160316 
L 1296.883636 593.591146 
L 1307.536364 593.591146 
L 1307.536364 593.591146 
" clip-path="url(#p8800134be5)" style="fill: none; stroke: #0000ff; stroke-width: 1.5; stroke-linecap: square"/>
   </g>
   <g id="patch_9">
    <path d="M 189 897.12 
L 189 559.65913 
" style="fill: none; stroke: #000000; stroke-width: 0.8; stroke-linejoin: miter; stroke-linecap: square"/>
   </g>
   <g id="patch_10">
    <path d="M 1360.8 897.12 
L 1360.8 559.65913 
" style="fill: none; stroke: #000000; stroke-width: 0.8; stroke-linejoin: miter; stroke-linecap: square"/>
   </g>
   <g id="patch_11">
    <path d="M 189 897.12 
L 1360.8 897.12 
" style="fill: none; stroke: #000000; stroke-width: 0.8; stroke-linejoin: miter; stroke-linecap: square"/>
   </g>
   <g id="patch_12">
    <path d="M 189 559.65913 
L 1360.8 559.65913 
" style="fill: none; stroke: #000000; stroke-width: 0.8; stroke-linejoin: miter; stroke-linecap: square"/>
   </g>
   <g id="text_32">
    <!-- Regular units -->
    <g transform="translate(735.230625 553.65913) scale(0.12 -0.12)">
     <defs>
      <path id="DejaVuSans-52" d="M 2841 2188 
Q 3044 2119 3236 1894 
Q 3428 1669 3622 1275 
L 4263 0 
L 3584 0 
L 2988 1197 
Q 2756 1666 2539 1819 
Q 2322 1972 1947 1972 
L 1259 1972 
L 1259 0 
L 628 0 
L 628 4666 
L 2053 4666 
Q 2853 4666 3247 4331 
Q 3641 3997 3641 3322 
Q 3641 2881 3436 2590 
Q 3231 2300 2841 2188 
z
M 1259 4147 
L 1259 2491 
L 2053 2491 
Q 2509 2491 2742 2702 
Q 2975 2913 2975 3322 
Q 2975 3731 2742 3939 
Q 2509 4147 2053 4147 
L 1259 4147 
z
" transform="scale(0.015625)"/>
      <path id="DejaVuSans-72" d="M 2631 2963 
Q 2534 3019 2420 3045 
Q 2306 3072 2169 3072 
Q 1681 3072 1420 2755 
Q 1159 2438 1159 1844 
L 1159 0 
L 581 0 
L 581 3500 
L 1159 3500 
L 1159 2956 
Q 1341 3275 1631 3429 
Q 1922 3584 2338 3584 
Q 2397 3584 2469 3576 
Q 2541 3569 2628 3553 
L 2631 2963 
z
" transform="scale(0.015625)"/>
     </defs>
     <use xlink:href="#DejaVuSans-52"/>
     <use xlink:href="#DejaVuSans-65" x="64.982422"/>
     <use xlink:href="#DejaVuSans-67" x="126.505859"/>
     <use xlink:href="#DejaVuSans-75" x="189.982422"/>
     <use xlink:href="#DejaVuSans-6c" x="253.361328"/>
     <use xlink:href="#DejaVuSans-61" x="281.144531"/>
     <use xlink:href="#DejaVuSans-72" x="342.423828"/>
     <use xlink:href="#DejaVuSans-20" x="383.537109"/>
     <use xlink:href="#DejaVuSans-75" x="415.324219"/>
     <use xlink:href="#DejaVuSans-6e" x="478.703125"/>
     <use xlink:href="#DejaVuSans-69" x="542.082031"/>
     <use xlink:href="#DejaVuSans-74" x="569.865234"/>
     <use xlink:href="#DejaVuSans-73" x="609.074219"/>
    </g>
   </g>
   <g id="legend_2">
    <g id="patch_13">
     <path d="M 1262.137187 714.704755 
L 1351 714.704755 
Q 1353.8 714.704755 1353.8 711.904755 
L 1353.8 569.45913 
Q 1353.8 566.65913 1351 566.65913 
L 1262.137187 566.65913 
Q 1259.337188 566.65913 1259.337188 569.45913 
L 1259.337188 711.904755 
Q 1259.337188 714.704755 1262.137187 714.704755 
z
" style="fill: #ffffff; opacity: 0.8; stroke: #cccccc; stroke-linejoin: miter"/>
    </g>
    <g id="line2d_37">
     <path d="M 1264.937187 577.996943 
L 1278.937187 577.996943 
L 1278.937187 577.996943 
L 1292.937187 577.996943 
L 1292.937187 577.996943 
" style="fill: none; stroke: #1f77b4; stroke-width: 1.5; stroke-linecap: square"/>
    </g>
    <g id="text_33">
     <!-- P1.1.1 -->
     <g transform="translate(1304.137187 582.896943) scale(0.14 -0.14)">
      <use xlink:href="#DejaVuSans-50"/>
      <use xlink:href="#DejaVuSans-31" x="60.302734"/>
      <use xlink:href="#DejaVuSans-2e" x="123.925781"/>
      <use xlink:href="#DejaVuSans-31" x="155.712891"/>
      <use xlink:href="#DejaVuSans-2e" x="219.335938"/>
      <use xlink:href="#DejaVuSans-31" x="251.123047"/>
     </g>
    </g>
    <g id="line2d_38">
     <path d="M 1264.937187 598.546318 
L 1278.937187 598.546318 
L 1278.937187 598.546318 
L 1292.937187 598.546318 
L 1292.937187 598.546318 
" style="fill: none; stroke: #ff7f0e; stroke-width: 1.5; stroke-linecap: square"/>
    </g>
    <g id="text_34">
     <!-- P1.1.2 -->
     <g transform="translate(1304.137187 603.446318) scale(0.14 -0.14)">
      <use xlink:href="#DejaVuSans-50"/>
      <use xlink:href="#DejaVuSans-31" x="60.302734"/>
      <use xlink:href="#DejaVuSans-2e" x="123.925781"/>
      <use xlink:href="#DejaVuSans-31" x="155.712891"/>
      <use xlink:href="#DejaVuSans-2e" x="219.335938"/>
      <use xlink:href="#DejaVuSans-32" x="251.123047"/>
     </g>
    </g>
    <g id="line2d_39">
     <path d="M 1264.937187 619.095693 
L 1278.937187 619.095693 
L 1278.937187 619.095693 
L 1292.937187 619.095693 
L 1292.937187 619.095693 
" style="fill: none; stroke: #2ca02c; stroke-width: 1.5; stroke-linecap: square"/>
    </g>
    <g id="text_35">
     <!-- P1.2.1 -->
     <g transform="translate(1304.137187 623.995693) scale(0.14 -0.14)">
      <use xlink:href="#DejaVuSans-50"/>
      <use xlink:href="#DejaVuSans-31" x="60.302734"/>
      <use xlink:href="#DejaVuSans-2e" x="123.925781"/>
      <use xlink:href="#DejaVuSans-32" x="155.712891"/>
      <use xlink:href="#DejaVuSans-2e" x="219.335938"/>
      <use xlink:href="#DejaVuSans-31" x="251.123047"/>
     </g>
    </g>
    <g id="line2d_40">
     <path d="M 1264.937187 639.645068 
L 1278.937187 639.645068 
L 1278.937187 639.645068 
L 1292.937187 639.645068 
L 1292.937187 639.645068 
" style="fill: none; stroke: #d62728; stroke-width: 1.5; stroke-linecap: square"/>
    </g>
    <g id="text_36">
     <!-- P1.2.2 -->
     <g transform="translate(1304.137187 644.545068) scale(0.14 -0.14)">
      <use xlink:href="#DejaVuSans-50"/>
      <use xlink:href="#DejaVuSans-31" x="60.302734"/>
      <use xlink:href="#DejaVuSans-2e" x="123.925781"/>
      <use xlink:href="#DejaVuSans-32" x="155.712891"/>
      <use xlink:href="#DejaVuSans-2e" x="219.335938"/>
      <use xlink:href="#DejaVuSans-32" x="251.123047"/>
     </g>
    </g>
    <g id="line2d_41">
     <path d="M 1264.937187 660.194443 
L 1278.937187 660.194443 
L 1278.937187 660.194443 
L 1292.937187 660.194443 
L 1292.937187 660.194443 
" style="fill: none; stroke: #ff0000; stroke-width: 1.5; stroke-linecap: square"/>
    </g>
    <g id="text_37">
     <!-- P1.1 -->
     <g transform="translate(1304.137187 665.094443) scale(0.14 -0.14)">
      <use xlink:href="#DejaVuSans-50"/>
      <use xlink:href="#DejaVuSans-31" x="60.302734"/>
      <use xlink:href="#DejaVuSans-2e" x="123.925781"/>
      <use xlink:href="#DejaVuSans-31" x="155.712891"/>
     </g>
    </g>
    <g id="line2d_42">
     <path d="M 1264.937187 680.743818 
L 1278.937187 680.743818 
L 1278.937187 680.743818 
L 1292.937187 680.743818 
L 1292.937187 680.743818 
" style="fill: none; stroke: #008000; stroke-width: 1.5; stroke-linecap: square"/>
    </g>
    <g id="text_38">
     <!-- P1.2 -->
     <g transform="translate(1304.137187 685.643818) scale(0.14 -0.14)">
      <use xlink:href="#DejaVuSans-50"/>
      <use xlink:href="#DejaVuSans-31" x="60.302734"/>
      <use xlink:href="#DejaVuSans-2e" x="123.925781"/>
      <use xlink:href="#DejaVuSans-32" x="155.712891"/>
     </g>
    </g>
    <g id="line2d_43">
     <path d="M 1264.937187 701.293193 
L 1278.937187 701.293193 
L 1278.937187 701.293193 
L 1292.937187 701.293193 
L 1292.937187 701.293193 
" style="fill: none; stroke: #0000ff; stroke-width: 1.5; stroke-linecap: square"/>
    </g>
    <g id="text_39">
     <!-- P1 -->
     <g transform="translate(1304.137187 706.193193) scale(0.14 -0.14)">
      <use xlink:href="#DejaVuSans-50"/>
      <use xlink:href="#DejaVuSans-31" x="60.302734"/>
     </g>
    </g>
   </g>
  </g>
 </g>
 <defs>
  <clipPath id="paa548d127a">
   <rect x="189" y="120.96" width="1171.8" height="337.46087"/>
  </clipPath>
  <clipPath id="p8800134be5">
   <rect x="189" y="559.65913" width="1171.8" height="337.46087"/>
  </clipPath>
 </defs>
</svg>
