<?xml version="1.0" encoding="utf-8" standalone="no"?>
<!DOCTYPE svg PUBLIC "-//W3C//DTD SVG 1.1//EN"
  "http://www.w3.org/Graphics/SVG/1.1/DTD/svg11.dtd">
<svg xmlns:xlink="http://www.w3.org/1999/xlink" width="1512pt" height="1008pt" viewBox="0 0 1512 1008" xmlns="http://www.w3.org/2000/svg" version="1.1">
 <metadata>
  <rdf:RDF xmlns:dc="http://purl.org/dc/elements/1.1/" xmlns:cc="http://creativecommons.org/ns#" xmlns:rdf="http://www.w3.org/1999/02/22-rdf-syntax-ns#">
   <cc:Work>
    <dc:type rdf:resource="http://purl.org/dc/dcmitype/StillImage"/>
    <dc:date>2025-02-05T11:58:27.759633</dc:date>
    <dc:format>image/svg+xml</dc:format>
    <dc:creator>
     <cc:Agent>
      <dc:title>Matplotlib v3.9.2, https://matplotlib.org/</dc:title>
     </cc:Agent>
    </dc:creator>
   </cc:Work>
  </rdf:RDF>
 </metadata>
 <defs>
  <style type="text/css">*{stroke-linejoin: round; stroke-linecap: butt}</style>
 </defs>
 <g id="figure_1">
  <g id="patch_1">
   <path d="M 0 1008 
L 1512 1008 
L 1512 0 
L 0 0 
z
" style="fill: #ffffff"/>
  </g>
  <g id="axes_1">
   <g id="patch_2">
    <path d="M 189 458.42087 
L 1360.8 458.42087 
L 1360.8 120.96 
L 189 120.96 
z
" style="fill: #ffffff"/>
   </g>
   <g id="matplotlib.axis_1">
    <g id="xtick_1">
     <g id="line2d_1">
      <defs>
       <path id="m3178f7da1e" d="M 0 0 
L 0 3.5 
" style="stroke: #000000; stroke-width: 0.8"/>
      </defs>
      <g>
       <use xlink:href="#m3178f7da1e" x="242.263636" y="458.42087" style="stroke: #000000; stroke-width: 0.8"/>
      </g>
     </g>
     <g id="text_1">
      <!-- 0 -->
      <g transform="translate(239.082386 473.019307) scale(0.1 -0.1)">
       <defs>
        <path id="DejaVuSans-30" d="M 2034 4250 
Q 1547 4250 1301 3770 
Q 1056 3291 1056 2328 
Q 1056 1369 1301 889 
Q 1547 409 2034 409 
Q 2525 409 2770 889 
Q 3016 1369 3016 2328 
Q 3016 3291 2770 3770 
Q 2525 4250 2034 4250 
z
M 2034 4750 
Q 2819 4750 3233 4129 
Q 3647 3509 3647 2328 
Q 3647 1150 3233 529 
Q 2819 -91 2034 -91 
Q 1250 -91 836 529 
Q 422 1150 422 2328 
Q 422 3509 836 4129 
Q 1250 4750 2034 4750 
z
" transform="scale(0.015625)"/>
       </defs>
       <use xlink:href="#DejaVuSans-30"/>
      </g>
     </g>
    </g>
    <g id="xtick_2">
     <g id="line2d_2">
      <g>
       <use xlink:href="#m3178f7da1e" x="455.318182" y="458.42087" style="stroke: #000000; stroke-width: 0.8"/>
      </g>
     </g>
     <g id="text_2">
      <!-- 20 -->
      <g transform="translate(448.955682 473.019307) scale(0.1 -0.1)">
       <defs>
        <path id="DejaVuSans-32" d="M 1228 531 
L 3431 531 
L 3431 0 
L 469 0 
L 469 531 
Q 828 903 1448 1529 
Q 2069 2156 2228 2338 
Q 2531 2678 2651 2914 
Q 2772 3150 2772 3378 
Q 2772 3750 2511 3984 
Q 2250 4219 1831 4219 
Q 1534 4219 1204 4116 
Q 875 4013 500 3803 
L 500 4441 
Q 881 4594 1212 4672 
Q 1544 4750 1819 4750 
Q 2544 4750 2975 4387 
Q 3406 4025 3406 3419 
Q 3406 3131 3298 2873 
Q 3191 2616 2906 2266 
Q 2828 2175 2409 1742 
Q 1991 1309 1228 531 
z
" transform="scale(0.015625)"/>
       </defs>
       <use xlink:href="#DejaVuSans-32"/>
       <use xlink:href="#DejaVuSans-30" x="63.623047"/>
      </g>
     </g>
    </g>
    <g id="xtick_3">
     <g id="line2d_3">
      <g>
       <use xlink:href="#m3178f7da1e" x="668.372727" y="458.42087" style="stroke: #000000; stroke-width: 0.8"/>
      </g>
     </g>
     <g id="text_3">
      <!-- 40 -->
      <g transform="translate(662.010227 473.019307) scale(0.1 -0.1)">
       <defs>
        <path id="DejaVuSans-34" d="M 2419 4116 
L 825 1625 
L 2419 1625 
L 2419 4116 
z
M 2253 4666 
L 3047 4666 
L 3047 1625 
L 3713 1625 
L 3713 1100 
L 3047 1100 
L 3047 0 
L 2419 0 
L 2419 1100 
L 313 1100 
L 313 1709 
L 2253 4666 
z
" transform="scale(0.015625)"/>
       </defs>
       <use xlink:href="#DejaVuSans-34"/>
       <use xlink:href="#DejaVuSans-30" x="63.623047"/>
      </g>
     </g>
    </g>
    <g id="xtick_4">
     <g id="line2d_4">
      <g>
       <use xlink:href="#m3178f7da1e" x="881.427273" y="458.42087" style="stroke: #000000; stroke-width: 0.8"/>
      </g>
     </g>
     <g id="text_4">
      <!-- 60 -->
      <g transform="translate(875.064773 473.019307) scale(0.1 -0.1)">
       <defs>
        <path id="DejaVuSans-36" d="M 2113 2584 
Q 1688 2584 1439 2293 
Q 1191 2003 1191 1497 
Q 1191 994 1439 701 
Q 1688 409 2113 409 
Q 2538 409 2786 701 
Q 3034 994 3034 1497 
Q 3034 2003 2786 2293 
Q 2538 2584 2113 2584 
z
M 3366 4563 
L 3366 3988 
Q 3128 4100 2886 4159 
Q 2644 4219 2406 4219 
Q 1781 4219 1451 3797 
Q 1122 3375 1075 2522 
Q 1259 2794 1537 2939 
Q 1816 3084 2150 3084 
Q 2853 3084 3261 2657 
Q 3669 2231 3669 1497 
Q 3669 778 3244 343 
Q 2819 -91 2113 -91 
Q 1303 -91 875 529 
Q 447 1150 447 2328 
Q 447 3434 972 4092 
Q 1497 4750 2381 4750 
Q 2619 4750 2861 4703 
Q 3103 4656 3366 4563 
z
" transform="scale(0.015625)"/>
       </defs>
       <use xlink:href="#DejaVuSans-36"/>
       <use xlink:href="#DejaVuSans-30" x="63.623047"/>
      </g>
     </g>
    </g>
    <g id="xtick_5">
     <g id="line2d_5">
      <g>
       <use xlink:href="#m3178f7da1e" x="1094.481818" y="458.42087" style="stroke: #000000; stroke-width: 0.8"/>
      </g>
     </g>
     <g id="text_5">
      <!-- 80 -->
      <g transform="translate(1088.119318 473.019307) scale(0.1 -0.1)">
       <defs>
        <path id="DejaVuSans-38" d="M 2034 2216 
Q 1584 2216 1326 1975 
Q 1069 1734 1069 1313 
Q 1069 891 1326 650 
Q 1584 409 2034 409 
Q 2484 409 2743 651 
Q 3003 894 3003 1313 
Q 3003 1734 2745 1975 
Q 2488 2216 2034 2216 
z
M 1403 2484 
Q 997 2584 770 2862 
Q 544 3141 544 3541 
Q 544 4100 942 4425 
Q 1341 4750 2034 4750 
Q 2731 4750 3128 4425 
Q 3525 4100 3525 3541 
Q 3525 3141 3298 2862 
Q 3072 2584 2669 2484 
Q 3125 2378 3379 2068 
Q 3634 1759 3634 1313 
Q 3634 634 3220 271 
Q 2806 -91 2034 -91 
Q 1263 -91 848 271 
Q 434 634 434 1313 
Q 434 1759 690 2068 
Q 947 2378 1403 2484 
z
M 1172 3481 
Q 1172 3119 1398 2916 
Q 1625 2713 2034 2713 
Q 2441 2713 2670 2916 
Q 2900 3119 2900 3481 
Q 2900 3844 2670 4047 
Q 2441 4250 2034 4250 
Q 1625 4250 1398 4047 
Q 1172 3844 1172 3481 
z
" transform="scale(0.015625)"/>
       </defs>
       <use xlink:href="#DejaVuSans-38"/>
       <use xlink:href="#DejaVuSans-30" x="63.623047"/>
      </g>
     </g>
    </g>
    <g id="xtick_6">
     <g id="line2d_6">
      <g>
       <use xlink:href="#m3178f7da1e" x="1307.536364" y="458.42087" style="stroke: #000000; stroke-width: 0.8"/>
      </g>
     </g>
     <g id="text_6">
      <!-- 100 -->
      <g transform="translate(1297.992614 473.019307) scale(0.1 -0.1)">
       <defs>
        <path id="DejaVuSans-31" d="M 794 531 
L 1825 531 
L 1825 4091 
L 703 3866 
L 703 4441 
L 1819 4666 
L 2450 4666 
L 2450 531 
L 3481 531 
L 3481 0 
L 794 0 
L 794 531 
z
" transform="scale(0.015625)"/>
       </defs>
       <use xlink:href="#DejaVuSans-31"/>
       <use xlink:href="#DejaVuSans-30" x="63.623047"/>
       <use xlink:href="#DejaVuSans-30" x="127.246094"/>
      </g>
     </g>
    </g>
    <g id="text_7">
     <!-- Time (s) -->
     <g transform="translate(754.571094 486.697432) scale(0.1 -0.1)">
      <defs>
       <path id="DejaVuSans-54" d="M -19 4666 
L 3928 4666 
L 3928 4134 
L 2272 4134 
L 2272 0 
L 1638 0 
L 1638 4134 
L -19 4134 
L -19 4666 
z
" transform="scale(0.015625)"/>
       <path id="DejaVuSans-69" d="M 603 3500 
L 1178 3500 
L 1178 0 
L 603 0 
L 603 3500 
z
M 603 4863 
L 1178 4863 
L 1178 4134 
L 603 4134 
L 603 4863 
z
" transform="scale(0.015625)"/>
       <path id="DejaVuSans-6d" d="M 3328 2828 
Q 3544 3216 3844 3400 
Q 4144 3584 4550 3584 
Q 5097 3584 5394 3201 
Q 5691 2819 5691 2113 
L 5691 0 
L 5113 0 
L 5113 2094 
Q 5113 2597 4934 2840 
Q 4756 3084 4391 3084 
Q 3944 3084 3684 2787 
Q 3425 2491 3425 1978 
L 3425 0 
L 2847 0 
L 2847 2094 
Q 2847 2600 2669 2842 
Q 2491 3084 2119 3084 
Q 1678 3084 1418 2786 
Q 1159 2488 1159 1978 
L 1159 0 
L 581 0 
L 581 3500 
L 1159 3500 
L 1159 2956 
Q 1356 3278 1631 3431 
Q 1906 3584 2284 3584 
Q 2666 3584 2933 3390 
Q 3200 3197 3328 2828 
z
" transform="scale(0.015625)"/>
       <path id="DejaVuSans-65" d="M 3597 1894 
L 3597 1613 
L 953 1613 
Q 991 1019 1311 708 
Q 1631 397 2203 397 
Q 2534 397 2845 478 
Q 3156 559 3463 722 
L 3463 178 
Q 3153 47 2828 -22 
Q 2503 -91 2169 -91 
Q 1331 -91 842 396 
Q 353 884 353 1716 
Q 353 2575 817 3079 
Q 1281 3584 2069 3584 
Q 2775 3584 3186 3129 
Q 3597 2675 3597 1894 
z
M 3022 2063 
Q 3016 2534 2758 2815 
Q 2500 3097 2075 3097 
Q 1594 3097 1305 2825 
Q 1016 2553 972 2059 
L 3022 2063 
z
" transform="scale(0.015625)"/>
       <path id="DejaVuSans-20" transform="scale(0.015625)"/>
       <path id="DejaVuSans-28" d="M 1984 4856 
Q 1566 4138 1362 3434 
Q 1159 2731 1159 2009 
Q 1159 1288 1364 580 
Q 1569 -128 1984 -844 
L 1484 -844 
Q 1016 -109 783 600 
Q 550 1309 550 2009 
Q 550 2706 781 3412 
Q 1013 4119 1484 4856 
L 1984 4856 
z
" transform="scale(0.015625)"/>
       <path id="DejaVuSans-73" d="M 2834 3397 
L 2834 2853 
Q 2591 2978 2328 3040 
Q 2066 3103 1784 3103 
Q 1356 3103 1142 2972 
Q 928 2841 928 2578 
Q 928 2378 1081 2264 
Q 1234 2150 1697 2047 
L 1894 2003 
Q 2506 1872 2764 1633 
Q 3022 1394 3022 966 
Q 3022 478 2636 193 
Q 2250 -91 1575 -91 
Q 1294 -91 989 -36 
Q 684 19 347 128 
L 347 722 
Q 666 556 975 473 
Q 1284 391 1588 391 
Q 1994 391 2212 530 
Q 2431 669 2431 922 
Q 2431 1156 2273 1281 
Q 2116 1406 1581 1522 
L 1381 1569 
Q 847 1681 609 1914 
Q 372 2147 372 2553 
Q 372 3047 722 3315 
Q 1072 3584 1716 3584 
Q 2034 3584 2315 3537 
Q 2597 3491 2834 3397 
z
" transform="scale(0.015625)"/>
       <path id="DejaVuSans-29" d="M 513 4856 
L 1013 4856 
Q 1481 4119 1714 3412 
Q 1947 2706 1947 2009 
Q 1947 1309 1714 600 
Q 1481 -109 1013 -844 
L 513 -844 
Q 928 -128 1133 580 
Q 1338 1288 1338 2009 
Q 1338 2731 1133 3434 
Q 928 4138 513 4856 
z
" transform="scale(0.015625)"/>
      </defs>
      <use xlink:href="#DejaVuSans-54"/>
      <use xlink:href="#DejaVuSans-69" x="57.958984"/>
      <use xlink:href="#DejaVuSans-6d" x="85.742188"/>
      <use xlink:href="#DejaVuSans-65" x="183.154297"/>
      <use xlink:href="#DejaVuSans-20" x="244.677734"/>
      <use xlink:href="#DejaVuSans-28" x="276.464844"/>
      <use xlink:href="#DejaVuSans-73" x="315.478516"/>
      <use xlink:href="#DejaVuSans-29" x="367.578125"/>
     </g>
    </g>
   </g>
   <g id="matplotlib.axis_2">
    <g id="ytick_1">
     <g id="line2d_7">
      <defs>
       <path id="mebc2275723" d="M 0 0 
L -3.5 0 
" style="stroke: #000000; stroke-width: 0.8"/>
      </defs>
      <g>
       <use xlink:href="#mebc2275723" x="189" y="443.081739" style="stroke: #000000; stroke-width: 0.8"/>
      </g>
     </g>
     <g id="text_8">
      <!-- 0 -->
      <g transform="translate(175.6375 446.880958) scale(0.1 -0.1)">
       <use xlink:href="#DejaVuSans-30"/>
      </g>
     </g>
    </g>
    <g id="ytick_2">
     <g id="line2d_8">
      <g>
       <use xlink:href="#mebc2275723" x="189" y="402.715606" style="stroke: #000000; stroke-width: 0.8"/>
      </g>
     </g>
     <g id="text_9">
      <!-- 5 -->
      <g transform="translate(175.6375 406.514825) scale(0.1 -0.1)">
       <defs>
        <path id="DejaVuSans-35" d="M 691 4666 
L 3169 4666 
L 3169 4134 
L 1269 4134 
L 1269 2991 
Q 1406 3038 1543 3061 
Q 1681 3084 1819 3084 
Q 2600 3084 3056 2656 
Q 3513 2228 3513 1497 
Q 3513 744 3044 326 
Q 2575 -91 1722 -91 
Q 1428 -91 1123 -41 
Q 819 9 494 109 
L 494 744 
Q 775 591 1075 516 
Q 1375 441 1709 441 
Q 2250 441 2565 725 
Q 2881 1009 2881 1497 
Q 2881 1984 2565 2268 
Q 2250 2553 1709 2553 
Q 1456 2553 1204 2497 
Q 953 2441 691 2322 
L 691 4666 
z
" transform="scale(0.015625)"/>
       </defs>
       <use xlink:href="#DejaVuSans-35"/>
      </g>
     </g>
    </g>
    <g id="ytick_3">
     <g id="line2d_9">
      <g>
       <use xlink:href="#mebc2275723" x="189" y="362.349474" style="stroke: #000000; stroke-width: 0.8"/>
      </g>
     </g>
     <g id="text_10">
      <!-- 10 -->
      <g transform="translate(169.275 366.148692) scale(0.1 -0.1)">
       <use xlink:href="#DejaVuSans-31"/>
       <use xlink:href="#DejaVuSans-30" x="63.623047"/>
      </g>
     </g>
    </g>
    <g id="ytick_4">
     <g id="line2d_10">
      <g>
       <use xlink:href="#mebc2275723" x="189" y="321.983341" style="stroke: #000000; stroke-width: 0.8"/>
      </g>
     </g>
     <g id="text_11">
      <!-- 15 -->
      <g transform="translate(169.275 325.78256) scale(0.1 -0.1)">
       <use xlink:href="#DejaVuSans-31"/>
       <use xlink:href="#DejaVuSans-35" x="63.623047"/>
      </g>
     </g>
    </g>
    <g id="ytick_5">
     <g id="line2d_11">
      <g>
       <use xlink:href="#mebc2275723" x="189" y="281.617208" style="stroke: #000000; stroke-width: 0.8"/>
      </g>
     </g>
     <g id="text_12">
      <!-- 20 -->
      <g transform="translate(169.275 285.416427) scale(0.1 -0.1)">
       <use xlink:href="#DejaVuSans-32"/>
       <use xlink:href="#DejaVuSans-30" x="63.623047"/>
      </g>
     </g>
    </g>
    <g id="ytick_6">
     <g id="line2d_12">
      <g>
       <use xlink:href="#mebc2275723" x="189" y="241.251076" style="stroke: #000000; stroke-width: 0.8"/>
      </g>
     </g>
     <g id="text_13">
      <!-- 25 -->
      <g transform="translate(169.275 245.050294) scale(0.1 -0.1)">
       <use xlink:href="#DejaVuSans-32"/>
       <use xlink:href="#DejaVuSans-35" x="63.623047"/>
      </g>
     </g>
    </g>
    <g id="ytick_7">
     <g id="line2d_13">
      <g>
       <use xlink:href="#mebc2275723" x="189" y="200.884943" style="stroke: #000000; stroke-width: 0.8"/>
      </g>
     </g>
     <g id="text_14">
      <!-- 30 -->
      <g transform="translate(169.275 204.684162) scale(0.1 -0.1)">
       <defs>
        <path id="DejaVuSans-33" d="M 2597 2516 
Q 3050 2419 3304 2112 
Q 3559 1806 3559 1356 
Q 3559 666 3084 287 
Q 2609 -91 1734 -91 
Q 1441 -91 1130 -33 
Q 819 25 488 141 
L 488 750 
Q 750 597 1062 519 
Q 1375 441 1716 441 
Q 2309 441 2620 675 
Q 2931 909 2931 1356 
Q 2931 1769 2642 2001 
Q 2353 2234 1838 2234 
L 1294 2234 
L 1294 2753 
L 1863 2753 
Q 2328 2753 2575 2939 
Q 2822 3125 2822 3475 
Q 2822 3834 2567 4026 
Q 2313 4219 1838 4219 
Q 1578 4219 1281 4162 
Q 984 4106 628 3988 
L 628 4550 
Q 988 4650 1302 4700 
Q 1616 4750 1894 4750 
Q 2613 4750 3031 4423 
Q 3450 4097 3450 3541 
Q 3450 3153 3228 2886 
Q 3006 2619 2597 2516 
z
" transform="scale(0.015625)"/>
       </defs>
       <use xlink:href="#DejaVuSans-33"/>
       <use xlink:href="#DejaVuSans-30" x="63.623047"/>
      </g>
     </g>
    </g>
    <g id="ytick_8">
     <g id="line2d_14">
      <g>
       <use xlink:href="#mebc2275723" x="189" y="160.51881" style="stroke: #000000; stroke-width: 0.8"/>
      </g>
     </g>
     <g id="text_15">
      <!-- 35 -->
      <g transform="translate(169.275 164.318029) scale(0.1 -0.1)">
       <use xlink:href="#DejaVuSans-33"/>
       <use xlink:href="#DejaVuSans-35" x="63.623047"/>
      </g>
     </g>
    </g>
    <g id="text_16">
     <!-- Occupied Windows -->
     <g transform="translate(163.195312 337.013091) rotate(-90) scale(0.1 -0.1)">
      <defs>
       <path id="DejaVuSans-4f" d="M 2522 4238 
Q 1834 4238 1429 3725 
Q 1025 3213 1025 2328 
Q 1025 1447 1429 934 
Q 1834 422 2522 422 
Q 3209 422 3611 934 
Q 4013 1447 4013 2328 
Q 4013 3213 3611 3725 
Q 3209 4238 2522 4238 
z
M 2522 4750 
Q 3503 4750 4090 4092 
Q 4678 3434 4678 2328 
Q 4678 1225 4090 567 
Q 3503 -91 2522 -91 
Q 1538 -91 948 565 
Q 359 1222 359 2328 
Q 359 3434 948 4092 
Q 1538 4750 2522 4750 
z
" transform="scale(0.015625)"/>
       <path id="DejaVuSans-63" d="M 3122 3366 
L 3122 2828 
Q 2878 2963 2633 3030 
Q 2388 3097 2138 3097 
Q 1578 3097 1268 2742 
Q 959 2388 959 1747 
Q 959 1106 1268 751 
Q 1578 397 2138 397 
Q 2388 397 2633 464 
Q 2878 531 3122 666 
L 3122 134 
Q 2881 22 2623 -34 
Q 2366 -91 2075 -91 
Q 1284 -91 818 406 
Q 353 903 353 1747 
Q 353 2603 823 3093 
Q 1294 3584 2113 3584 
Q 2378 3584 2631 3529 
Q 2884 3475 3122 3366 
z
" transform="scale(0.015625)"/>
       <path id="DejaVuSans-75" d="M 544 1381 
L 544 3500 
L 1119 3500 
L 1119 1403 
Q 1119 906 1312 657 
Q 1506 409 1894 409 
Q 2359 409 2629 706 
Q 2900 1003 2900 1516 
L 2900 3500 
L 3475 3500 
L 3475 0 
L 2900 0 
L 2900 538 
Q 2691 219 2414 64 
Q 2138 -91 1772 -91 
Q 1169 -91 856 284 
Q 544 659 544 1381 
z
M 1991 3584 
L 1991 3584 
z
" transform="scale(0.015625)"/>
       <path id="DejaVuSans-70" d="M 1159 525 
L 1159 -1331 
L 581 -1331 
L 581 3500 
L 1159 3500 
L 1159 2969 
Q 1341 3281 1617 3432 
Q 1894 3584 2278 3584 
Q 2916 3584 3314 3078 
Q 3713 2572 3713 1747 
Q 3713 922 3314 415 
Q 2916 -91 2278 -91 
Q 1894 -91 1617 61 
Q 1341 213 1159 525 
z
M 3116 1747 
Q 3116 2381 2855 2742 
Q 2594 3103 2138 3103 
Q 1681 3103 1420 2742 
Q 1159 2381 1159 1747 
Q 1159 1113 1420 752 
Q 1681 391 2138 391 
Q 2594 391 2855 752 
Q 3116 1113 3116 1747 
z
" transform="scale(0.015625)"/>
       <path id="DejaVuSans-64" d="M 2906 2969 
L 2906 4863 
L 3481 4863 
L 3481 0 
L 2906 0 
L 2906 525 
Q 2725 213 2448 61 
Q 2172 -91 1784 -91 
Q 1150 -91 751 415 
Q 353 922 353 1747 
Q 353 2572 751 3078 
Q 1150 3584 1784 3584 
Q 2172 3584 2448 3432 
Q 2725 3281 2906 2969 
z
M 947 1747 
Q 947 1113 1208 752 
Q 1469 391 1925 391 
Q 2381 391 2643 752 
Q 2906 1113 2906 1747 
Q 2906 2381 2643 2742 
Q 2381 3103 1925 3103 
Q 1469 3103 1208 2742 
Q 947 2381 947 1747 
z
" transform="scale(0.015625)"/>
       <path id="DejaVuSans-57" d="M 213 4666 
L 850 4666 
L 1831 722 
L 2809 4666 
L 3519 4666 
L 4500 722 
L 5478 4666 
L 6119 4666 
L 4947 0 
L 4153 0 
L 3169 4050 
L 2175 0 
L 1381 0 
L 213 4666 
z
" transform="scale(0.015625)"/>
       <path id="DejaVuSans-6e" d="M 3513 2113 
L 3513 0 
L 2938 0 
L 2938 2094 
Q 2938 2591 2744 2837 
Q 2550 3084 2163 3084 
Q 1697 3084 1428 2787 
Q 1159 2491 1159 1978 
L 1159 0 
L 581 0 
L 581 3500 
L 1159 3500 
L 1159 2956 
Q 1366 3272 1645 3428 
Q 1925 3584 2291 3584 
Q 2894 3584 3203 3211 
Q 3513 2838 3513 2113 
z
" transform="scale(0.015625)"/>
       <path id="DejaVuSans-6f" d="M 1959 3097 
Q 1497 3097 1228 2736 
Q 959 2375 959 1747 
Q 959 1119 1226 758 
Q 1494 397 1959 397 
Q 2419 397 2687 759 
Q 2956 1122 2956 1747 
Q 2956 2369 2687 2733 
Q 2419 3097 1959 3097 
z
M 1959 3584 
Q 2709 3584 3137 3096 
Q 3566 2609 3566 1747 
Q 3566 888 3137 398 
Q 2709 -91 1959 -91 
Q 1206 -91 779 398 
Q 353 888 353 1747 
Q 353 2609 779 3096 
Q 1206 3584 1959 3584 
z
" transform="scale(0.015625)"/>
       <path id="DejaVuSans-77" d="M 269 3500 
L 844 3500 
L 1563 769 
L 2278 3500 
L 2956 3500 
L 3675 769 
L 4391 3500 
L 4966 3500 
L 4050 0 
L 3372 0 
L 2619 2869 
L 1863 0 
L 1184 0 
L 269 3500 
z
" transform="scale(0.015625)"/>
      </defs>
      <use xlink:href="#DejaVuSans-4f"/>
      <use xlink:href="#DejaVuSans-63" x="78.710938"/>
      <use xlink:href="#DejaVuSans-63" x="133.691406"/>
      <use xlink:href="#DejaVuSans-75" x="188.671875"/>
      <use xlink:href="#DejaVuSans-70" x="252.050781"/>
      <use xlink:href="#DejaVuSans-69" x="315.527344"/>
      <use xlink:href="#DejaVuSans-65" x="343.310547"/>
      <use xlink:href="#DejaVuSans-64" x="404.833984"/>
      <use xlink:href="#DejaVuSans-20" x="468.310547"/>
      <use xlink:href="#DejaVuSans-57" x="500.097656"/>
      <use xlink:href="#DejaVuSans-69" x="596.724609"/>
      <use xlink:href="#DejaVuSans-6e" x="624.507812"/>
      <use xlink:href="#DejaVuSans-64" x="687.886719"/>
      <use xlink:href="#DejaVuSans-6f" x="751.363281"/>
      <use xlink:href="#DejaVuSans-77" x="812.544922"/>
      <use xlink:href="#DejaVuSans-73" x="894.332031"/>
     </g>
    </g>
   </g>
   <g id="line2d_15">
    <path d="M 242.263636 402.715606 
L 252.916364 402.715606 
L 252.916364 281.617208 
L 263.569091 281.617208 
L 263.569091 435.008513 
L 274.221818 435.008513 
L 274.221818 313.910114 
L 284.874545 313.910114 
L 284.874545 338.129794 
L 316.832727 338.129794 
L 316.832727 402.715606 
L 327.485455 402.715606 
L 327.485455 410.788833 
L 338.138182 410.788833 
L 338.138182 378.495927 
L 348.790909 378.495927 
L 348.790909 313.910114 
L 359.443636 313.910114 
L 359.443636 402.715606 
L 391.401818 402.715606 
L 391.401818 249.324302 
L 402.054545 249.324302 
L 402.054545 410.788833 
L 412.707273 410.788833 
L 412.707273 330.056568 
L 423.36 330.056568 
L 423.36 313.910114 
L 444.665455 313.910114 
L 444.665455 330.056568 
L 465.970909 330.056568 
L 465.970909 378.495927 
L 487.276364 378.495927 
L 487.276364 435.008513 
L 497.929091 435.008513 
L 497.929091 208.958169 
L 508.581818 208.958169 
L 508.581818 330.056568 
L 529.887273 330.056568 
L 529.887273 426.935286 
L 540.54 426.935286 
L 540.54 410.788833 
L 561.845455 410.788833 
L 561.845455 330.056568 
L 572.498182 330.056568 
L 572.498182 362.349474 
L 583.150909 362.349474 
L 583.150909 297.763661 
L 593.803636 297.763661 
L 593.803636 378.495927 
L 604.456364 378.495927 
L 604.456364 410.788833 
L 615.109091 410.788833 
L 615.109091 289.690435 
L 625.761818 289.690435 
L 625.761818 435.008513 
L 636.414545 435.008513 
L 636.414545 394.64238 
L 647.067273 394.64238 
L 647.067273 378.495927 
L 657.72 378.495927 
L 657.72 418.862059 
L 668.372727 418.862059 
L 668.372727 321.983341 
L 679.025455 321.983341 
L 679.025455 184.73849 
L 689.678182 184.73849 
L 689.678182 168.592037 
L 710.983636 168.592037 
L 710.983636 370.4227 
L 721.636364 370.4227 
L 721.636364 394.64238 
L 742.941818 394.64238 
L 742.941818 410.788833 
L 753.594545 410.788833 
L 753.594545 402.715606 
L 764.247273 402.715606 
L 764.247273 378.495927 
L 774.9 378.495927 
L 774.9 386.569153 
L 785.552727 386.569153 
L 785.552727 184.73849 
L 796.205455 184.73849 
L 796.205455 321.983341 
L 806.858182 321.983341 
L 806.858182 330.056568 
L 817.510909 330.056568 
L 817.510909 435.008513 
L 828.163636 435.008513 
L 828.163636 217.031396 
L 838.816364 217.031396 
L 838.816364 289.690435 
L 849.469091 289.690435 
L 849.469091 241.251076 
L 860.121818 241.251076 
L 860.121818 152.445584 
L 870.774545 152.445584 
L 870.774545 426.935286 
L 892.08 426.935286 
L 892.08 136.29913 
L 902.732727 136.29913 
L 902.732727 249.324302 
L 913.385455 249.324302 
L 913.385455 330.056568 
L 924.038182 330.056568 
L 924.038182 297.763661 
L 955.996364 297.763661 
L 955.996364 321.983341 
L 966.649091 321.983341 
L 966.649091 281.617208 
L 977.301818 281.617208 
L 977.301818 354.276247 
L 1009.26 354.276247 
L 1009.26 435.008513 
L 1019.912727 435.008513 
L 1019.912727 370.4227 
L 1030.565455 370.4227 
L 1030.565455 152.445584 
L 1051.870909 152.445584 
L 1051.870909 297.763661 
L 1062.523636 297.763661 
L 1062.523636 200.884943 
L 1073.176364 200.884943 
L 1073.176364 346.203021 
L 1083.829091 346.203021 
L 1083.829091 338.129794 
L 1105.134545 338.129794 
L 1105.134545 435.008513 
L 1115.787273 435.008513 
L 1115.787273 402.715606 
L 1126.44 402.715606 
L 1126.44 330.056568 
L 1137.092727 330.056568 
L 1137.092727 435.008513 
L 1158.398182 435.008513 
L 1158.398182 330.056568 
L 1169.050909 330.056568 
L 1169.050909 249.324302 
L 1179.703636 249.324302 
L 1179.703636 362.349474 
L 1190.356364 362.349474 
L 1190.356364 257.397529 
L 1201.009091 257.397529 
L 1201.009091 386.569153 
L 1211.661818 386.569153 
L 1211.661818 410.788833 
L 1222.314545 410.788833 
L 1222.314545 152.445584 
L 1232.967273 152.445584 
L 1232.967273 418.862059 
L 1254.272727 418.862059 
L 1254.272727 410.788833 
L 1264.925455 410.788833 
L 1264.925455 208.958169 
L 1275.578182 208.958169 
L 1275.578182 346.203021 
L 1286.230909 346.203021 
L 1286.230909 378.495927 
L 1296.883636 378.495927 
L 1296.883636 249.324302 
L 1307.536364 249.324302 
L 1307.536364 249.324302 
" clip-path="url(#p7f57959233)" style="fill: none; stroke: #0000ff; stroke-width: 1.5; stroke-linecap: square"/>
   </g>
   <g id="line2d_16">
    <path d="M 242.263636 410.788833 
L 263.569091 410.788833 
L 263.569091 426.935286 
L 274.221818 426.935286 
L 274.221818 402.715606 
L 327.485455 402.715606 
L 327.485455 426.935286 
L 338.138182 426.935286 
L 338.138182 402.715606 
L 359.443636 402.715606 
L 359.443636 410.788833 
L 391.401818 410.788833 
L 391.401818 402.715606 
L 402.054545 402.715606 
L 402.054545 410.788833 
L 412.707273 410.788833 
L 412.707273 418.862059 
L 423.36 418.862059 
L 423.36 402.715606 
L 434.012727 402.715606 
L 434.012727 435.008513 
L 465.970909 435.008513 
L 465.970909 426.935286 
L 487.276364 426.935286 
L 487.276364 435.008513 
L 497.929091 435.008513 
L 497.929091 402.715606 
L 540.54 402.715606 
L 540.54 426.935286 
L 561.845455 426.935286 
L 561.845455 418.862059 
L 572.498182 418.862059 
L 572.498182 402.715606 
L 593.803636 402.715606 
L 593.803636 410.788833 
L 604.456364 410.788833 
L 604.456364 418.862059 
L 615.109091 418.862059 
L 615.109091 402.715606 
L 625.761818 402.715606 
L 625.761818 435.008513 
L 636.414545 435.008513 
L 636.414545 426.935286 
L 647.067273 426.935286 
L 647.067273 418.862059 
L 657.72 418.862059 
L 657.72 426.935286 
L 668.372727 426.935286 
L 668.372727 402.715606 
L 710.983636 402.715606 
L 710.983636 435.008513 
L 753.594545 435.008513 
L 753.594545 418.862059 
L 764.247273 418.862059 
L 764.247273 435.008513 
L 774.9 435.008513 
L 774.9 418.862059 
L 785.552727 418.862059 
L 785.552727 402.715606 
L 838.816364 402.715606 
L 838.816364 410.788833 
L 849.469091 410.788833 
L 849.469091 418.862059 
L 860.121818 418.862059 
L 860.121818 402.715606 
L 870.774545 402.715606 
L 870.774545 426.935286 
L 892.08 426.935286 
L 892.08 402.715606 
L 924.038182 402.715606 
L 924.038182 410.788833 
L 955.996364 410.788833 
L 955.996364 402.715606 
L 1009.26 402.715606 
L 1009.26 418.862059 
L 1051.870909 418.862059 
L 1051.870909 402.715606 
L 1137.092727 402.715606 
L 1137.092727 435.008513 
L 1147.745455 435.008513 
L 1147.745455 426.935286 
L 1158.398182 426.935286 
L 1158.398182 402.715606 
L 1201.009091 402.715606 
L 1201.009091 410.788833 
L 1222.314545 410.788833 
L 1222.314545 402.715606 
L 1232.967273 402.715606 
L 1232.967273 426.935286 
L 1264.925455 426.935286 
L 1264.925455 402.715606 
L 1307.536364 402.715606 
L 1307.536364 402.715606 
" clip-path="url(#p7f57959233)" style="fill: none; stroke: #ff0000; stroke-width: 1.5; stroke-linecap: square"/>
   </g>
   <g id="line2d_17">
    <path d="M 242.263636 443.081739 
L 252.916364 443.081739 
L 252.916364 402.715606 
L 284.874545 402.715606 
L 284.874545 418.862059 
L 316.832727 418.862059 
L 316.832727 410.788833 
L 348.790909 410.788833 
L 348.790909 418.862059 
L 391.401818 418.862059 
L 391.401818 402.715606 
L 412.707273 402.715606 
L 412.707273 410.788833 
L 444.665455 410.788833 
L 444.665455 402.715606 
L 465.970909 402.715606 
L 465.970909 410.788833 
L 487.276364 410.788833 
L 487.276364 426.935286 
L 497.929091 426.935286 
L 497.929091 402.715606 
L 508.581818 402.715606 
L 508.581818 426.935286 
L 529.887273 426.935286 
L 529.887273 410.788833 
L 540.54 410.788833 
L 540.54 435.008513 
L 561.845455 435.008513 
L 561.845455 402.715606 
L 572.498182 402.715606 
L 572.498182 418.862059 
L 583.150909 418.862059 
L 583.150909 410.788833 
L 615.109091 410.788833 
L 615.109091 402.715606 
L 636.414545 402.715606 
L 636.414545 426.935286 
L 647.067273 426.935286 
L 647.067273 410.788833 
L 668.372727 410.788833 
L 668.372727 402.715606 
L 721.636364 402.715606 
L 721.636364 418.862059 
L 742.941818 418.862059 
L 742.941818 426.935286 
L 753.594545 426.935286 
L 753.594545 418.862059 
L 764.247273 418.862059 
L 764.247273 410.788833 
L 774.9 410.788833 
L 774.9 418.862059 
L 785.552727 418.862059 
L 785.552727 402.715606 
L 796.205455 402.715606 
L 796.205455 410.788833 
L 817.510909 410.788833 
L 817.510909 426.935286 
L 828.163636 426.935286 
L 828.163636 402.715606 
L 881.427273 402.715606 
L 881.427273 426.935286 
L 892.08 426.935286 
L 892.08 402.715606 
L 955.996364 402.715606 
L 955.996364 435.008513 
L 966.649091 435.008513 
L 966.649091 410.788833 
L 977.301818 410.788833 
L 977.301818 435.008513 
L 987.954545 435.008513 
L 987.954545 426.935286 
L 1009.26 426.935286 
L 1009.26 435.008513 
L 1019.912727 435.008513 
L 1019.912727 418.862059 
L 1030.565455 418.862059 
L 1030.565455 402.715606 
L 1051.870909 402.715606 
L 1051.870909 435.008513 
L 1062.523636 435.008513 
L 1062.523636 426.935286 
L 1083.829091 426.935286 
L 1083.829091 402.715606 
L 1105.134545 402.715606 
L 1105.134545 426.935286 
L 1115.787273 426.935286 
L 1115.787273 410.788833 
L 1126.44 410.788833 
L 1126.44 402.715606 
L 1137.092727 402.715606 
L 1137.092727 426.935286 
L 1147.745455 426.935286 
L 1147.745455 435.008513 
L 1169.050909 435.008513 
L 1169.050909 402.715606 
L 1201.009091 402.715606 
L 1201.009091 435.008513 
L 1211.661818 435.008513 
L 1211.661818 426.935286 
L 1222.314545 426.935286 
L 1222.314545 402.715606 
L 1254.272727 402.715606 
L 1254.272727 418.862059 
L 1275.578182 418.862059 
L 1275.578182 402.715606 
L 1286.230909 402.715606 
L 1286.230909 410.788833 
L 1296.883636 410.788833 
L 1296.883636 402.715606 
L 1307.536364 402.715606 
L 1307.536364 402.715606 
" clip-path="url(#p7f57959233)" style="fill: none; stroke: #008000; stroke-width: 1.5; stroke-linecap: square"/>
   </g>
   <g id="patch_3">
    <path d="M 189 458.42087 
L 189 120.96 
" style="fill: none; stroke: #000000; stroke-width: 0.8; stroke-linejoin: miter; stroke-linecap: square"/>
   </g>
   <g id="patch_4">
    <path d="M 1360.8 458.42087 
L 1360.8 120.96 
" style="fill: none; stroke: #000000; stroke-width: 0.8; stroke-linejoin: miter; stroke-linecap: square"/>
   </g>
   <g id="patch_5">
    <path d="M 189 458.42087 
L 1360.8 458.42087 
" style="fill: none; stroke: #000000; stroke-width: 0.8; stroke-linejoin: miter; stroke-linecap: square"/>
   </g>
   <g id="patch_6">
    <path d="M 189 120.96 
L 1360.8 120.96 
" style="fill: none; stroke: #000000; stroke-width: 0.8; stroke-linejoin: miter; stroke-linecap: square"/>
   </g>
   <g id="text_17">
    <!-- Offloading units -->
    <g transform="translate(727.193437 114.96) scale(0.12 -0.12)">
     <defs>
      <path id="DejaVuSans-66" d="M 2375 4863 
L 2375 4384 
L 1825 4384 
Q 1516 4384 1395 4259 
Q 1275 4134 1275 3809 
L 1275 3500 
L 2222 3500 
L 2222 3053 
L 1275 3053 
L 1275 0 
L 697 0 
L 697 3053 
L 147 3053 
L 147 3500 
L 697 3500 
L 697 3744 
Q 697 4328 969 4595 
Q 1241 4863 1831 4863 
L 2375 4863 
z
" transform="scale(0.015625)"/>
      <path id="DejaVuSans-6c" d="M 603 4863 
L 1178 4863 
L 1178 0 
L 603 0 
L 603 4863 
z
" transform="scale(0.015625)"/>
      <path id="DejaVuSans-61" d="M 2194 1759 
Q 1497 1759 1228 1600 
Q 959 1441 959 1056 
Q 959 750 1161 570 
Q 1363 391 1709 391 
Q 2188 391 2477 730 
Q 2766 1069 2766 1631 
L 2766 1759 
L 2194 1759 
z
M 3341 1997 
L 3341 0 
L 2766 0 
L 2766 531 
Q 2569 213 2275 61 
Q 1981 -91 1556 -91 
Q 1019 -91 701 211 
Q 384 513 384 1019 
Q 384 1609 779 1909 
Q 1175 2209 1959 2209 
L 2766 2209 
L 2766 2266 
Q 2766 2663 2505 2880 
Q 2244 3097 1772 3097 
Q 1472 3097 1187 3025 
Q 903 2953 641 2809 
L 641 3341 
Q 956 3463 1253 3523 
Q 1550 3584 1831 3584 
Q 2591 3584 2966 3190 
Q 3341 2797 3341 1997 
z
" transform="scale(0.015625)"/>
      <path id="DejaVuSans-67" d="M 2906 1791 
Q 2906 2416 2648 2759 
Q 2391 3103 1925 3103 
Q 1463 3103 1205 2759 
Q 947 2416 947 1791 
Q 947 1169 1205 825 
Q 1463 481 1925 481 
Q 2391 481 2648 825 
Q 2906 1169 2906 1791 
z
M 3481 434 
Q 3481 -459 3084 -895 
Q 2688 -1331 1869 -1331 
Q 1566 -1331 1297 -1286 
Q 1028 -1241 775 -1147 
L 775 -588 
Q 1028 -725 1275 -790 
Q 1522 -856 1778 -856 
Q 2344 -856 2625 -561 
Q 2906 -266 2906 331 
L 2906 616 
Q 2728 306 2450 153 
Q 2172 0 1784 0 
Q 1141 0 747 490 
Q 353 981 353 1791 
Q 353 2603 747 3093 
Q 1141 3584 1784 3584 
Q 2172 3584 2450 3431 
Q 2728 3278 2906 2969 
L 2906 3500 
L 3481 3500 
L 3481 434 
z
" transform="scale(0.015625)"/>
      <path id="DejaVuSans-74" d="M 1172 4494 
L 1172 3500 
L 2356 3500 
L 2356 3053 
L 1172 3053 
L 1172 1153 
Q 1172 725 1289 603 
Q 1406 481 1766 481 
L 2356 481 
L 2356 0 
L 1766 0 
Q 1100 0 847 248 
Q 594 497 594 1153 
L 594 3053 
L 172 3053 
L 172 3500 
L 594 3500 
L 594 4494 
L 1172 4494 
z
" transform="scale(0.015625)"/>
     </defs>
     <use xlink:href="#DejaVuSans-4f"/>
     <use xlink:href="#DejaVuSans-66" x="78.710938"/>
     <use xlink:href="#DejaVuSans-66" x="113.916016"/>
     <use xlink:href="#DejaVuSans-6c" x="149.121094"/>
     <use xlink:href="#DejaVuSans-6f" x="176.904297"/>
     <use xlink:href="#DejaVuSans-61" x="238.085938"/>
     <use xlink:href="#DejaVuSans-64" x="299.365234"/>
     <use xlink:href="#DejaVuSans-69" x="362.841797"/>
     <use xlink:href="#DejaVuSans-6e" x="390.625"/>
     <use xlink:href="#DejaVuSans-67" x="454.003906"/>
     <use xlink:href="#DejaVuSans-20" x="517.480469"/>
     <use xlink:href="#DejaVuSans-75" x="549.267578"/>
     <use xlink:href="#DejaVuSans-6e" x="612.646484"/>
     <use xlink:href="#DejaVuSans-69" x="676.025391"/>
     <use xlink:href="#DejaVuSans-74" x="703.808594"/>
     <use xlink:href="#DejaVuSans-73" x="743.017578"/>
    </g>
   </g>
   <g id="legend_1">
    <g id="patch_7">
     <path d="M 1275.494062 193.808125 
L 1351 193.808125 
Q 1353.8 193.808125 1353.8 191.008125 
L 1353.8 130.76 
Q 1353.8 127.96 1351 127.96 
L 1275.494062 127.96 
Q 1272.694062 127.96 1272.694062 130.76 
L 1272.694062 191.008125 
Q 1272.694062 193.808125 1275.494062 193.808125 
z
" style="fill: #ffffff; opacity: 0.8; stroke: #cccccc; stroke-linejoin: miter"/>
    </g>
    <g id="line2d_18">
     <path d="M 1278.294062 139.297813 
L 1292.294062 139.297813 
L 1292.294062 139.297813 
L 1306.294062 139.297813 
L 1306.294062 139.297813 
" style="fill: none; stroke: #0000ff; stroke-width: 1.5; stroke-linecap: square"/>
    </g>
    <g id="text_18">
     <!-- P1 -->
     <g transform="translate(1317.494062 144.197813) scale(0.14 -0.14)">
      <defs>
       <path id="DejaVuSans-50" d="M 1259 4147 
L 1259 2394 
L 2053 2394 
Q 2494 2394 2734 2622 
Q 2975 2850 2975 3272 
Q 2975 3691 2734 3919 
Q 2494 4147 2053 4147 
L 1259 4147 
z
M 628 4666 
L 2053 4666 
Q 2838 4666 3239 4311 
Q 3641 3956 3641 3272 
Q 3641 2581 3239 2228 
Q 2838 1875 2053 1875 
L 1259 1875 
L 1259 0 
L 628 0 
L 628 4666 
z
" transform="scale(0.015625)"/>
      </defs>
      <use xlink:href="#DejaVuSans-50"/>
      <use xlink:href="#DejaVuSans-31" x="60.302734"/>
     </g>
    </g>
    <g id="line2d_19">
     <path d="M 1278.294062 159.847188 
L 1292.294062 159.847188 
L 1292.294062 159.847188 
L 1306.294062 159.847188 
L 1306.294062 159.847188 
" style="fill: none; stroke: #ff0000; stroke-width: 1.5; stroke-linecap: square"/>
    </g>
    <g id="text_19">
     <!-- P1.1 -->
     <g transform="translate(1317.494062 164.747188) scale(0.14 -0.14)">
      <defs>
       <path id="DejaVuSans-2e" d="M 684 794 
L 1344 794 
L 1344 0 
L 684 0 
L 684 794 
z
" transform="scale(0.015625)"/>
      </defs>
      <use xlink:href="#DejaVuSans-50"/>
      <use xlink:href="#DejaVuSans-31" x="60.302734"/>
      <use xlink:href="#DejaVuSans-2e" x="123.925781"/>
      <use xlink:href="#DejaVuSans-31" x="155.712891"/>
     </g>
    </g>
    <g id="line2d_20">
     <path d="M 1278.294062 180.396563 
L 1292.294062 180.396563 
L 1292.294062 180.396563 
L 1306.294062 180.396563 
L 1306.294062 180.396563 
" style="fill: none; stroke: #008000; stroke-width: 1.5; stroke-linecap: square"/>
    </g>
    <g id="text_20">
     <!-- P1.2 -->
     <g transform="translate(1317.494062 185.296563) scale(0.14 -0.14)">
      <use xlink:href="#DejaVuSans-50"/>
      <use xlink:href="#DejaVuSans-31" x="60.302734"/>
      <use xlink:href="#DejaVuSans-2e" x="123.925781"/>
      <use xlink:href="#DejaVuSans-32" x="155.712891"/>
     </g>
    </g>
   </g>
  </g>
  <g id="axes_2">
   <g id="patch_8">
    <path d="M 189 897.12 
L 1360.8 897.12 
L 1360.8 559.65913 
L 189 559.65913 
z
" style="fill: #ffffff"/>
   </g>
   <g id="matplotlib.axis_3">
    <g id="xtick_7">
     <g id="line2d_21">
      <g>
       <use xlink:href="#m3178f7da1e" x="242.263636" y="897.12" style="stroke: #000000; stroke-width: 0.8"/>
      </g>
     </g>
     <g id="text_21">
      <!-- 0 -->
      <g transform="translate(239.082386 911.718438) scale(0.1 -0.1)">
       <use xlink:href="#DejaVuSans-30"/>
      </g>
     </g>
    </g>
    <g id="xtick_8">
     <g id="line2d_22">
      <g>
       <use xlink:href="#m3178f7da1e" x="455.318182" y="897.12" style="stroke: #000000; stroke-width: 0.8"/>
      </g>
     </g>
     <g id="text_22">
      <!-- 20 -->
      <g transform="translate(448.955682 911.718438) scale(0.1 -0.1)">
       <use xlink:href="#DejaVuSans-32"/>
       <use xlink:href="#DejaVuSans-30" x="63.623047"/>
      </g>
     </g>
    </g>
    <g id="xtick_9">
     <g id="line2d_23">
      <g>
       <use xlink:href="#m3178f7da1e" x="668.372727" y="897.12" style="stroke: #000000; stroke-width: 0.8"/>
      </g>
     </g>
     <g id="text_23">
      <!-- 40 -->
      <g transform="translate(662.010227 911.718438) scale(0.1 -0.1)">
       <use xlink:href="#DejaVuSans-34"/>
       <use xlink:href="#DejaVuSans-30" x="63.623047"/>
      </g>
     </g>
    </g>
    <g id="xtick_10">
     <g id="line2d_24">
      <g>
       <use xlink:href="#m3178f7da1e" x="881.427273" y="897.12" style="stroke: #000000; stroke-width: 0.8"/>
      </g>
     </g>
     <g id="text_24">
      <!-- 60 -->
      <g transform="translate(875.064773 911.718438) scale(0.1 -0.1)">
       <use xlink:href="#DejaVuSans-36"/>
       <use xlink:href="#DejaVuSans-30" x="63.623047"/>
      </g>
     </g>
    </g>
    <g id="xtick_11">
     <g id="line2d_25">
      <g>
       <use xlink:href="#m3178f7da1e" x="1094.481818" y="897.12" style="stroke: #000000; stroke-width: 0.8"/>
      </g>
     </g>
     <g id="text_25">
      <!-- 80 -->
      <g transform="translate(1088.119318 911.718438) scale(0.1 -0.1)">
       <use xlink:href="#DejaVuSans-38"/>
       <use xlink:href="#DejaVuSans-30" x="63.623047"/>
      </g>
     </g>
    </g>
    <g id="xtick_12">
     <g id="line2d_26">
      <g>
       <use xlink:href="#m3178f7da1e" x="1307.536364" y="897.12" style="stroke: #000000; stroke-width: 0.8"/>
      </g>
     </g>
     <g id="text_26">
      <!-- 100 -->
      <g transform="translate(1297.992614 911.718438) scale(0.1 -0.1)">
       <use xlink:href="#DejaVuSans-31"/>
       <use xlink:href="#DejaVuSans-30" x="63.623047"/>
       <use xlink:href="#DejaVuSans-30" x="127.246094"/>
      </g>
     </g>
    </g>
    <g id="text_27">
     <!-- Time (s) -->
     <g transform="translate(754.571094 925.396563) scale(0.1 -0.1)">
      <use xlink:href="#DejaVuSans-54"/>
      <use xlink:href="#DejaVuSans-69" x="57.958984"/>
      <use xlink:href="#DejaVuSans-6d" x="85.742188"/>
      <use xlink:href="#DejaVuSans-65" x="183.154297"/>
      <use xlink:href="#DejaVuSans-20" x="244.677734"/>
      <use xlink:href="#DejaVuSans-28" x="276.464844"/>
      <use xlink:href="#DejaVuSans-73" x="315.478516"/>
      <use xlink:href="#DejaVuSans-29" x="367.578125"/>
     </g>
    </g>
   </g>
   <g id="matplotlib.axis_4">
    <g id="ytick_9">
     <g id="line2d_27">
      <g>
       <use xlink:href="#mebc2275723" x="189" y="843.433043" style="stroke: #000000; stroke-width: 0.8"/>
      </g>
     </g>
     <g id="text_28">
      <!-- 10 -->
      <g transform="translate(169.275 847.232262) scale(0.1 -0.1)">
       <use xlink:href="#DejaVuSans-31"/>
       <use xlink:href="#DejaVuSans-30" x="63.623047"/>
      </g>
     </g>
    </g>
    <g id="ytick_10">
     <g id="line2d_28">
      <g>
       <use xlink:href="#mebc2275723" x="189" y="788.650435" style="stroke: #000000; stroke-width: 0.8"/>
      </g>
     </g>
     <g id="text_29">
      <!-- 20 -->
      <g transform="translate(169.275 792.449654) scale(0.1 -0.1)">
       <use xlink:href="#DejaVuSans-32"/>
       <use xlink:href="#DejaVuSans-30" x="63.623047"/>
      </g>
     </g>
    </g>
    <g id="ytick_11">
     <g id="line2d_29">
      <g>
       <use xlink:href="#mebc2275723" x="189" y="733.867826" style="stroke: #000000; stroke-width: 0.8"/>
      </g>
     </g>
     <g id="text_30">
      <!-- 30 -->
      <g transform="translate(169.275 737.667045) scale(0.1 -0.1)">
       <use xlink:href="#DejaVuSans-33"/>
       <use xlink:href="#DejaVuSans-30" x="63.623047"/>
      </g>
     </g>
    </g>
    <g id="ytick_12">
     <g id="line2d_30">
      <g>
       <use xlink:href="#mebc2275723" x="189" y="679.085217" style="stroke: #000000; stroke-width: 0.8"/>
      </g>
     </g>
     <g id="text_31">
      <!-- 40 -->
      <g transform="translate(169.275 682.884436) scale(0.1 -0.1)">
       <use xlink:href="#DejaVuSans-34"/>
       <use xlink:href="#DejaVuSans-30" x="63.623047"/>
      </g>
     </g>
    </g>
    <g id="ytick_13">
     <g id="line2d_31">
      <g>
       <use xlink:href="#mebc2275723" x="189" y="624.302609" style="stroke: #000000; stroke-width: 0.8"/>
      </g>
     </g>
     <g id="text_32">
      <!-- 50 -->
      <g transform="translate(169.275 628.101827) scale(0.1 -0.1)">
       <use xlink:href="#DejaVuSans-35"/>
       <use xlink:href="#DejaVuSans-30" x="63.623047"/>
      </g>
     </g>
    </g>
    <g id="ytick_14">
     <g id="line2d_32">
      <g>
       <use xlink:href="#mebc2275723" x="189" y="569.52" style="stroke: #000000; stroke-width: 0.8"/>
      </g>
     </g>
     <g id="text_33">
      <!-- 60 -->
      <g transform="translate(169.275 573.319219) scale(0.1 -0.1)">
       <use xlink:href="#DejaVuSans-36"/>
       <use xlink:href="#DejaVuSans-30" x="63.623047"/>
      </g>
     </g>
    </g>
    <g id="text_34">
     <!-- Occupied Windows -->
     <g transform="translate(163.195312 775.712221) rotate(-90) scale(0.1 -0.1)">
      <use xlink:href="#DejaVuSans-4f"/>
      <use xlink:href="#DejaVuSans-63" x="78.710938"/>
      <use xlink:href="#DejaVuSans-63" x="133.691406"/>
      <use xlink:href="#DejaVuSans-75" x="188.671875"/>
      <use xlink:href="#DejaVuSans-70" x="252.050781"/>
      <use xlink:href="#DejaVuSans-69" x="315.527344"/>
      <use xlink:href="#DejaVuSans-65" x="343.310547"/>
      <use xlink:href="#DejaVuSans-64" x="404.833984"/>
      <use xlink:href="#DejaVuSans-20" x="468.310547"/>
      <use xlink:href="#DejaVuSans-57" x="500.097656"/>
      <use xlink:href="#DejaVuSans-69" x="596.724609"/>
      <use xlink:href="#DejaVuSans-6e" x="624.507812"/>
      <use xlink:href="#DejaVuSans-64" x="687.886719"/>
      <use xlink:href="#DejaVuSans-6f" x="751.363281"/>
      <use xlink:href="#DejaVuSans-77" x="812.544922"/>
      <use xlink:href="#DejaVuSans-73" x="894.332031"/>
     </g>
    </g>
   </g>
   <g id="line2d_33">
    <path d="M 242.263636 843.433043 
L 295.527273 843.433043 
L 295.527273 848.911304 
L 316.832727 848.911304 
L 316.832727 854.389565 
L 327.485455 854.389565 
L 327.485455 843.433043 
L 338.138182 843.433043 
L 338.138182 854.389565 
L 348.790909 854.389565 
L 348.790909 843.433043 
L 370.096364 843.433043 
L 370.096364 870.824348 
L 380.749091 870.824348 
L 380.749091 865.346087 
L 391.401818 865.346087 
L 391.401818 843.433043 
L 402.054545 843.433043 
L 402.054545 865.346087 
L 412.707273 865.346087 
L 412.707273 843.433043 
L 444.665455 843.433043 
L 444.665455 865.346087 
L 455.318182 865.346087 
L 455.318182 843.433043 
L 476.623636 843.433043 
L 476.623636 854.389565 
L 487.276364 854.389565 
L 487.276364 848.911304 
L 497.929091 848.911304 
L 497.929091 859.867826 
L 508.581818 859.867826 
L 508.581818 843.433043 
L 519.234545 843.433043 
L 519.234545 859.867826 
L 529.887273 859.867826 
L 529.887273 854.389565 
L 540.54 854.389565 
L 540.54 848.911304 
L 561.845455 848.911304 
L 561.845455 854.389565 
L 572.498182 854.389565 
L 572.498182 859.867826 
L 583.150909 859.867826 
L 583.150909 843.433043 
L 604.456364 843.433043 
L 604.456364 854.389565 
L 615.109091 854.389565 
L 615.109091 848.911304 
L 636.414545 848.911304 
L 636.414545 843.433043 
L 647.067273 843.433043 
L 647.067273 876.302609 
L 657.72 876.302609 
L 657.72 843.433043 
L 689.678182 843.433043 
L 689.678182 848.911304 
L 700.330909 848.911304 
L 700.330909 843.433043 
L 732.289091 843.433043 
L 732.289091 870.824348 
L 742.941818 870.824348 
L 742.941818 848.911304 
L 753.594545 848.911304 
L 753.594545 843.433043 
L 764.247273 843.433043 
L 764.247273 859.867826 
L 785.552727 859.867826 
L 785.552727 843.433043 
L 796.205455 843.433043 
L 796.205455 870.824348 
L 806.858182 870.824348 
L 806.858182 843.433043 
L 817.510909 843.433043 
L 817.510909 848.911304 
L 828.163636 848.911304 
L 828.163636 843.433043 
L 838.816364 843.433043 
L 838.816364 848.911304 
L 860.121818 848.911304 
L 860.121818 843.433043 
L 881.427273 843.433043 
L 881.427273 859.867826 
L 892.08 859.867826 
L 892.08 843.433043 
L 902.732727 843.433043 
L 902.732727 859.867826 
L 913.385455 859.867826 
L 913.385455 843.433043 
L 945.343636 843.433043 
L 945.343636 859.867826 
L 955.996364 859.867826 
L 955.996364 843.433043 
L 987.954545 843.433043 
L 987.954545 859.867826 
L 998.607273 859.867826 
L 998.607273 854.389565 
L 1009.26 854.389565 
L 1009.26 870.824348 
L 1019.912727 870.824348 
L 1019.912727 859.867826 
L 1030.565455 859.867826 
L 1030.565455 870.824348 
L 1041.218182 870.824348 
L 1041.218182 843.433043 
L 1083.829091 843.433043 
L 1083.829091 870.824348 
L 1094.481818 870.824348 
L 1094.481818 859.867826 
L 1105.134545 859.867826 
L 1105.134545 843.433043 
L 1115.787273 843.433043 
L 1115.787273 881.78087 
L 1126.44 881.78087 
L 1126.44 859.867826 
L 1137.092727 859.867826 
L 1137.092727 843.433043 
L 1147.745455 843.433043 
L 1147.745455 865.346087 
L 1158.398182 865.346087 
L 1158.398182 843.433043 
L 1211.661818 843.433043 
L 1211.661818 848.911304 
L 1222.314545 848.911304 
L 1222.314545 843.433043 
L 1254.272727 843.433043 
L 1254.272727 854.389565 
L 1264.925455 854.389565 
L 1264.925455 843.433043 
L 1307.536364 843.433043 
L 1307.536364 843.433043 
" clip-path="url(#pd6291e626d)" style="fill: none; stroke: #1f77b4; stroke-width: 1.5; stroke-linecap: square"/>
   </g>
   <g id="line2d_34">
    <path d="M 242.263636 859.867826 
L 252.916364 859.867826 
L 252.916364 843.433043 
L 263.569091 843.433043 
L 263.569091 859.867826 
L 274.221818 859.867826 
L 274.221818 843.433043 
L 295.527273 843.433043 
L 295.527273 859.867826 
L 306.18 859.867826 
L 306.18 848.911304 
L 316.832727 848.911304 
L 316.832727 843.433043 
L 359.443636 843.433043 
L 359.443636 859.867826 
L 370.096364 859.867826 
L 370.096364 848.911304 
L 391.401818 848.911304 
L 391.401818 854.389565 
L 402.054545 854.389565 
L 402.054545 843.433043 
L 434.012727 843.433043 
L 434.012727 865.346087 
L 455.318182 865.346087 
L 455.318182 848.911304 
L 476.623636 848.911304 
L 476.623636 843.433043 
L 519.234545 843.433043 
L 519.234545 854.389565 
L 529.887273 854.389565 
L 529.887273 859.867826 
L 540.54 859.867826 
L 540.54 843.433043 
L 636.414545 843.433043 
L 636.414545 854.389565 
L 647.067273 854.389565 
L 647.067273 843.433043 
L 657.72 843.433043 
L 657.72 848.911304 
L 668.372727 848.911304 
L 668.372727 843.433043 
L 689.678182 843.433043 
L 689.678182 859.867826 
L 700.330909 859.867826 
L 700.330909 848.911304 
L 710.983636 848.911304 
L 710.983636 859.867826 
L 721.636364 859.867826 
L 721.636364 854.389565 
L 742.941818 854.389565 
L 742.941818 843.433043 
L 753.594545 843.433043 
L 753.594545 859.867826 
L 764.247273 859.867826 
L 764.247273 843.433043 
L 817.510909 843.433043 
L 817.510909 854.389565 
L 828.163636 854.389565 
L 828.163636 843.433043 
L 870.774545 843.433043 
L 870.774545 854.389565 
L 892.08 854.389565 
L 892.08 843.433043 
L 934.690909 843.433043 
L 934.690909 854.389565 
L 945.343636 854.389565 
L 945.343636 848.911304 
L 955.996364 848.911304 
L 955.996364 859.867826 
L 966.649091 859.867826 
L 966.649091 843.433043 
L 977.301818 843.433043 
L 977.301818 859.867826 
L 987.954545 859.867826 
L 987.954545 870.824348 
L 998.607273 870.824348 
L 998.607273 843.433043 
L 1030.565455 843.433043 
L 1030.565455 859.867826 
L 1041.218182 859.867826 
L 1041.218182 843.433043 
L 1083.829091 843.433043 
L 1083.829091 865.346087 
L 1094.481818 865.346087 
L 1094.481818 848.911304 
L 1105.134545 848.911304 
L 1105.134545 843.433043 
L 1137.092727 843.433043 
L 1137.092727 865.346087 
L 1147.745455 865.346087 
L 1147.745455 843.433043 
L 1190.356364 843.433043 
L 1190.356364 848.911304 
L 1201.009091 848.911304 
L 1201.009091 854.389565 
L 1211.661818 854.389565 
L 1211.661818 865.346087 
L 1222.314545 865.346087 
L 1222.314545 843.433043 
L 1232.967273 843.433043 
L 1232.967273 848.911304 
L 1254.272727 848.911304 
L 1254.272727 865.346087 
L 1264.925455 865.346087 
L 1264.925455 843.433043 
L 1275.578182 843.433043 
L 1275.578182 848.911304 
L 1296.883636 848.911304 
L 1296.883636 843.433043 
L 1307.536364 843.433043 
L 1307.536364 843.433043 
" clip-path="url(#pd6291e626d)" style="fill: none; stroke: #ff7f0e; stroke-width: 1.5; stroke-linecap: square"/>
   </g>
   <g id="line2d_35">
    <path d="M 242.263636 870.824348 
L 252.916364 870.824348 
L 252.916364 843.433043 
L 274.221818 843.433043 
L 274.221818 848.911304 
L 284.874545 848.911304 
L 284.874545 859.867826 
L 295.527273 859.867826 
L 295.527273 843.433043 
L 306.18 843.433043 
L 306.18 865.346087 
L 316.832727 865.346087 
L 316.832727 859.867826 
L 327.485455 859.867826 
L 327.485455 848.911304 
L 348.790909 848.911304 
L 348.790909 843.433043 
L 359.443636 843.433043 
L 359.443636 859.867826 
L 370.096364 859.867826 
L 370.096364 865.346087 
L 380.749091 865.346087 
L 380.749091 854.389565 
L 391.401818 854.389565 
L 391.401818 843.433043 
L 402.054545 843.433043 
L 402.054545 870.824348 
L 412.707273 870.824348 
L 412.707273 843.433043 
L 423.36 843.433043 
L 423.36 859.867826 
L 434.012727 859.867826 
L 434.012727 870.824348 
L 444.665455 870.824348 
L 444.665455 843.433043 
L 455.318182 843.433043 
L 455.318182 859.867826 
L 465.970909 859.867826 
L 465.970909 843.433043 
L 487.276364 843.433043 
L 487.276364 865.346087 
L 508.581818 865.346087 
L 508.581818 843.433043 
L 519.234545 843.433043 
L 519.234545 859.867826 
L 529.887273 859.867826 
L 529.887273 876.302609 
L 540.54 876.302609 
L 540.54 848.911304 
L 551.192727 848.911304 
L 551.192727 854.389565 
L 561.845455 854.389565 
L 561.845455 843.433043 
L 572.498182 843.433043 
L 572.498182 859.867826 
L 583.150909 859.867826 
L 583.150909 843.433043 
L 593.803636 843.433043 
L 593.803636 859.867826 
L 604.456364 859.867826 
L 604.456364 854.389565 
L 615.109091 854.389565 
L 615.109091 843.433043 
L 625.761818 843.433043 
L 625.761818 848.911304 
L 636.414545 848.911304 
L 636.414545 843.433043 
L 657.72 843.433043 
L 657.72 859.867826 
L 668.372727 859.867826 
L 668.372727 870.824348 
L 679.025455 870.824348 
L 679.025455 843.433043 
L 700.330909 843.433043 
L 700.330909 848.911304 
L 710.983636 848.911304 
L 710.983636 843.433043 
L 732.289091 843.433043 
L 732.289091 876.302609 
L 742.941818 876.302609 
L 742.941818 848.911304 
L 753.594545 848.911304 
L 753.594545 865.346087 
L 764.247273 865.346087 
L 764.247273 843.433043 
L 774.9 843.433043 
L 774.9 854.389565 
L 785.552727 854.389565 
L 785.552727 843.433043 
L 806.858182 843.433043 
L 806.858182 848.911304 
L 817.510909 848.911304 
L 817.510909 843.433043 
L 860.121818 843.433043 
L 860.121818 865.346087 
L 870.774545 865.346087 
L 870.774545 870.824348 
L 881.427273 870.824348 
L 881.427273 854.389565 
L 892.08 854.389565 
L 892.08 843.433043 
L 902.732727 843.433043 
L 902.732727 859.867826 
L 924.038182 859.867826 
L 924.038182 854.389565 
L 945.343636 854.389565 
L 945.343636 843.433043 
L 955.996364 843.433043 
L 955.996364 854.389565 
L 977.301818 854.389565 
L 977.301818 843.433043 
L 987.954545 843.433043 
L 987.954545 865.346087 
L 998.607273 865.346087 
L 998.607273 854.389565 
L 1009.26 854.389565 
L 1009.26 843.433043 
L 1041.218182 843.433043 
L 1041.218182 854.389565 
L 1051.870909 854.389565 
L 1051.870909 843.433043 
L 1073.176364 843.433043 
L 1073.176364 854.389565 
L 1083.829091 854.389565 
L 1083.829091 843.433043 
L 1094.481818 843.433043 
L 1094.481818 848.911304 
L 1105.134545 848.911304 
L 1105.134545 843.433043 
L 1137.092727 843.433043 
L 1137.092727 859.867826 
L 1147.745455 859.867826 
L 1147.745455 843.433043 
L 1158.398182 843.433043 
L 1158.398182 870.824348 
L 1169.050909 870.824348 
L 1169.050909 854.389565 
L 1179.703636 854.389565 
L 1179.703636 881.78087 
L 1190.356364 881.78087 
L 1190.356364 843.433043 
L 1243.62 843.433043 
L 1243.62 848.911304 
L 1254.272727 848.911304 
L 1254.272727 843.433043 
L 1307.536364 843.433043 
L 1307.536364 843.433043 
" clip-path="url(#pd6291e626d)" style="fill: none; stroke: #2ca02c; stroke-width: 1.5; stroke-linecap: square"/>
   </g>
   <g id="line2d_36">
    <path d="M 242.263636 865.346087 
L 252.916364 865.346087 
L 252.916364 843.433043 
L 263.569091 843.433043 
L 263.569091 854.389565 
L 274.221818 854.389565 
L 274.221818 859.867826 
L 284.874545 859.867826 
L 284.874545 843.433043 
L 306.18 843.433043 
L 306.18 848.911304 
L 316.832727 848.911304 
L 316.832727 843.433043 
L 327.485455 843.433043 
L 327.485455 854.389565 
L 338.138182 854.389565 
L 338.138182 859.867826 
L 348.790909 859.867826 
L 348.790909 843.433043 
L 359.443636 843.433043 
L 359.443636 848.911304 
L 370.096364 848.911304 
L 370.096364 854.389565 
L 380.749091 854.389565 
L 380.749091 859.867826 
L 391.401818 859.867826 
L 391.401818 843.433043 
L 434.012727 843.433043 
L 434.012727 876.302609 
L 444.665455 876.302609 
L 444.665455 843.433043 
L 455.318182 843.433043 
L 455.318182 848.911304 
L 465.970909 848.911304 
L 465.970909 859.867826 
L 476.623636 859.867826 
L 476.623636 843.433043 
L 508.581818 843.433043 
L 508.581818 854.389565 
L 519.234545 854.389565 
L 519.234545 843.433043 
L 551.192727 843.433043 
L 551.192727 854.389565 
L 561.845455 854.389565 
L 561.845455 843.433043 
L 583.150909 843.433043 
L 583.150909 854.389565 
L 604.456364 854.389565 
L 604.456364 843.433043 
L 625.761818 843.433043 
L 625.761818 854.389565 
L 636.414545 854.389565 
L 636.414545 843.433043 
L 657.72 843.433043 
L 657.72 848.911304 
L 668.372727 848.911304 
L 668.372727 843.433043 
L 700.330909 843.433043 
L 700.330909 854.389565 
L 710.983636 854.389565 
L 710.983636 870.824348 
L 721.636364 870.824348 
L 721.636364 843.433043 
L 817.510909 843.433043 
L 817.510909 859.867826 
L 828.163636 859.867826 
L 828.163636 843.433043 
L 838.816364 843.433043 
L 838.816364 865.346087 
L 849.469091 865.346087 
L 849.469091 843.433043 
L 934.690909 843.433043 
L 934.690909 848.911304 
L 945.343636 848.911304 
L 945.343636 876.302609 
L 955.996364 876.302609 
L 955.996364 843.433043 
L 998.607273 843.433043 
L 998.607273 870.824348 
L 1009.26 870.824348 
L 1009.26 859.867826 
L 1019.912727 859.867826 
L 1019.912727 843.433043 
L 1041.218182 843.433043 
L 1041.218182 848.911304 
L 1051.870909 848.911304 
L 1051.870909 843.433043 
L 1073.176364 843.433043 
L 1073.176364 859.867826 
L 1083.829091 859.867826 
L 1083.829091 848.911304 
L 1094.481818 848.911304 
L 1094.481818 854.389565 
L 1105.134545 854.389565 
L 1105.134545 859.867826 
L 1126.44 859.867826 
L 1126.44 843.433043 
L 1147.745455 843.433043 
L 1147.745455 854.389565 
L 1158.398182 854.389565 
L 1158.398182 859.867826 
L 1169.050909 859.867826 
L 1169.050909 843.433043 
L 1179.703636 843.433043 
L 1179.703636 848.911304 
L 1190.356364 848.911304 
L 1190.356364 843.433043 
L 1201.009091 843.433043 
L 1201.009091 848.911304 
L 1211.661818 848.911304 
L 1211.661818 843.433043 
L 1232.967273 843.433043 
L 1232.967273 848.911304 
L 1243.62 848.911304 
L 1243.62 870.824348 
L 1254.272727 870.824348 
L 1254.272727 854.389565 
L 1264.925455 854.389565 
L 1264.925455 859.867826 
L 1275.578182 859.867826 
L 1275.578182 843.433043 
L 1296.883636 843.433043 
L 1296.883636 854.389565 
L 1307.536364 854.389565 
L 1307.536364 854.389565 
" clip-path="url(#pd6291e626d)" style="fill: none; stroke: #d62728; stroke-width: 1.5; stroke-linecap: square"/>
   </g>
   <g id="line2d_37">
    <path d="M 242.263636 810.563478 
L 263.569091 810.563478 
L 263.569091 799.606957 
L 274.221818 799.606957 
L 274.221818 816.041739 
L 295.527273 816.041739 
L 295.527273 810.563478 
L 306.18 810.563478 
L 306.18 799.606957 
L 338.138182 799.606957 
L 338.138182 816.041739 
L 359.443636 816.041739 
L 359.443636 810.563478 
L 370.096364 810.563478 
L 370.096364 821.52 
L 380.749091 821.52 
L 380.749091 816.041739 
L 402.054545 816.041739 
L 402.054545 810.563478 
L 412.707273 810.563478 
L 412.707273 805.085217 
L 423.36 805.085217 
L 423.36 816.041739 
L 434.012727 816.041739 
L 434.012727 805.085217 
L 444.665455 805.085217 
L 444.665455 832.476522 
L 455.318182 832.476522 
L 455.318182 794.128696 
L 465.970909 794.128696 
L 465.970909 799.606957 
L 487.276364 799.606957 
L 487.276364 794.128696 
L 497.929091 794.128696 
L 497.929091 816.041739 
L 540.54 816.041739 
L 540.54 799.606957 
L 551.192727 799.606957 
L 551.192727 794.128696 
L 561.845455 794.128696 
L 561.845455 805.085217 
L 572.498182 805.085217 
L 572.498182 816.041739 
L 593.803636 816.041739 
L 593.803636 810.563478 
L 604.456364 810.563478 
L 604.456364 805.085217 
L 615.109091 805.085217 
L 615.109091 816.041739 
L 625.761818 816.041739 
L 625.761818 794.128696 
L 636.414545 794.128696 
L 636.414545 799.606957 
L 647.067273 799.606957 
L 647.067273 805.085217 
L 657.72 805.085217 
L 657.72 799.606957 
L 668.372727 799.606957 
L 668.372727 816.041739 
L 689.678182 816.041739 
L 689.678182 810.563478 
L 700.330909 810.563478 
L 700.330909 794.128696 
L 710.983636 794.128696 
L 710.983636 799.606957 
L 732.289091 799.606957 
L 732.289091 826.998261 
L 742.941818 826.998261 
L 742.941818 794.128696 
L 753.594545 794.128696 
L 753.594545 805.085217 
L 764.247273 805.085217 
L 764.247273 799.606957 
L 774.9 799.606957 
L 774.9 805.085217 
L 785.552727 805.085217 
L 785.552727 816.041739 
L 817.510909 816.041739 
L 817.510909 805.085217 
L 828.163636 805.085217 
L 828.163636 816.041739 
L 838.816364 816.041739 
L 838.816364 810.563478 
L 849.469091 810.563478 
L 849.469091 805.085217 
L 860.121818 805.085217 
L 860.121818 816.041739 
L 870.774545 816.041739 
L 870.774545 799.606957 
L 881.427273 799.606957 
L 881.427273 816.041739 
L 924.038182 816.041739 
L 924.038182 810.563478 
L 934.690909 810.563478 
L 934.690909 799.606957 
L 945.343636 799.606957 
L 945.343636 810.563478 
L 955.996364 810.563478 
L 955.996364 816.041739 
L 987.954545 816.041739 
L 987.954545 832.476522 
L 998.607273 832.476522 
L 998.607273 799.606957 
L 1009.26 799.606957 
L 1009.26 805.085217 
L 1030.565455 805.085217 
L 1030.565455 832.476522 
L 1041.218182 832.476522 
L 1041.218182 788.650435 
L 1051.870909 788.650435 
L 1051.870909 816.041739 
L 1083.829091 816.041739 
L 1083.829091 837.954783 
L 1094.481818 837.954783 
L 1094.481818 810.563478 
L 1105.134545 810.563478 
L 1105.134545 788.650435 
L 1115.787273 788.650435 
L 1115.787273 826.998261 
L 1126.44 826.998261 
L 1126.44 805.085217 
L 1147.745455 805.085217 
L 1147.745455 799.606957 
L 1158.398182 799.606957 
L 1158.398182 816.041739 
L 1201.009091 816.041739 
L 1201.009091 810.563478 
L 1211.661818 810.563478 
L 1211.661818 816.041739 
L 1232.967273 816.041739 
L 1232.967273 799.606957 
L 1243.62 799.606957 
L 1243.62 794.128696 
L 1254.272727 794.128696 
L 1254.272727 821.52 
L 1264.925455 821.52 
L 1264.925455 816.041739 
L 1275.578182 816.041739 
L 1275.578182 794.128696 
L 1296.883636 794.128696 
L 1296.883636 816.041739 
L 1307.536364 816.041739 
L 1307.536364 816.041739 
" clip-path="url(#pd6291e626d)" style="fill: none; stroke: #ff0000; stroke-width: 1.5; stroke-linecap: square"/>
   </g>
   <g id="line2d_38">
    <path d="M 242.263636 837.954783 
L 252.916364 837.954783 
L 252.916364 816.041739 
L 263.569091 816.041739 
L 263.569091 799.606957 
L 274.221818 799.606957 
L 274.221818 810.563478 
L 284.874545 810.563478 
L 284.874545 805.085217 
L 295.527273 805.085217 
L 295.527273 788.650435 
L 306.18 788.650435 
L 306.18 816.041739 
L 316.832727 816.041739 
L 316.832727 810.563478 
L 327.485455 810.563478 
L 327.485455 805.085217 
L 338.138182 805.085217 
L 338.138182 810.563478 
L 348.790909 810.563478 
L 348.790909 805.085217 
L 359.443636 805.085217 
L 359.443636 810.563478 
L 370.096364 810.563478 
L 370.096364 821.52 
L 380.749091 821.52 
L 380.749091 816.041739 
L 412.707273 816.041739 
L 412.707273 810.563478 
L 423.36 810.563478 
L 423.36 805.085217 
L 434.012727 805.085217 
L 434.012727 848.911304 
L 444.665455 848.911304 
L 444.665455 816.041739 
L 455.318182 816.041739 
L 455.318182 810.563478 
L 487.276364 810.563478 
L 487.276364 799.606957 
L 497.929091 799.606957 
L 497.929091 816.041739 
L 508.581818 816.041739 
L 508.581818 799.606957 
L 519.234545 799.606957 
L 519.234545 805.085217 
L 529.887273 805.085217 
L 529.887273 810.563478 
L 540.54 810.563478 
L 540.54 794.128696 
L 551.192727 794.128696 
L 551.192727 810.563478 
L 561.845455 810.563478 
L 561.845455 816.041739 
L 572.498182 816.041739 
L 572.498182 805.085217 
L 583.150909 805.085217 
L 583.150909 810.563478 
L 593.803636 810.563478 
L 593.803636 816.041739 
L 604.456364 816.041739 
L 604.456364 799.606957 
L 615.109091 799.606957 
L 615.109091 816.041739 
L 625.761818 816.041739 
L 625.761818 805.085217 
L 636.414545 805.085217 
L 636.414545 799.606957 
L 647.067273 799.606957 
L 647.067273 810.563478 
L 668.372727 810.563478 
L 668.372727 816.041739 
L 700.330909 816.041739 
L 700.330909 805.085217 
L 710.983636 805.085217 
L 710.983636 816.041739 
L 721.636364 816.041739 
L 721.636364 805.085217 
L 742.941818 805.085217 
L 742.941818 799.606957 
L 753.594545 799.606957 
L 753.594545 805.085217 
L 764.247273 805.085217 
L 764.247273 810.563478 
L 774.9 810.563478 
L 774.9 805.085217 
L 785.552727 805.085217 
L 785.552727 816.041739 
L 796.205455 816.041739 
L 796.205455 810.563478 
L 806.858182 810.563478 
L 806.858182 794.128696 
L 817.510909 794.128696 
L 817.510909 799.606957 
L 828.163636 799.606957 
L 828.163636 816.041739 
L 881.427273 816.041739 
L 881.427273 799.606957 
L 892.08 799.606957 
L 892.08 816.041739 
L 913.385455 816.041739 
L 913.385455 805.085217 
L 924.038182 805.085217 
L 924.038182 816.041739 
L 934.690909 816.041739 
L 934.690909 805.085217 
L 945.343636 805.085217 
L 945.343636 821.52 
L 955.996364 821.52 
L 955.996364 794.128696 
L 966.649091 794.128696 
L 966.649091 810.563478 
L 977.301818 810.563478 
L 977.301818 794.128696 
L 987.954545 794.128696 
L 987.954545 799.606957 
L 998.607273 799.606957 
L 998.607273 826.998261 
L 1009.26 826.998261 
L 1009.26 799.606957 
L 1019.912727 799.606957 
L 1019.912727 805.085217 
L 1030.565455 805.085217 
L 1030.565455 816.041739 
L 1041.218182 816.041739 
L 1041.218182 805.085217 
L 1051.870909 805.085217 
L 1051.870909 794.128696 
L 1062.523636 794.128696 
L 1062.523636 799.606957 
L 1073.176364 799.606957 
L 1073.176364 816.041739 
L 1094.481818 816.041739 
L 1094.481818 805.085217 
L 1105.134545 805.085217 
L 1105.134545 799.606957 
L 1115.787273 799.606957 
L 1115.787273 810.563478 
L 1126.44 810.563478 
L 1126.44 816.041739 
L 1137.092727 816.041739 
L 1137.092727 799.606957 
L 1147.745455 799.606957 
L 1147.745455 794.128696 
L 1158.398182 794.128696 
L 1158.398182 832.476522 
L 1169.050909 832.476522 
L 1169.050909 816.041739 
L 1179.703636 816.041739 
L 1179.703636 832.476522 
L 1190.356364 832.476522 
L 1190.356364 816.041739 
L 1201.009091 816.041739 
L 1201.009091 794.128696 
L 1211.661818 794.128696 
L 1211.661818 799.606957 
L 1222.314545 799.606957 
L 1222.314545 816.041739 
L 1232.967273 816.041739 
L 1232.967273 794.128696 
L 1243.62 794.128696 
L 1243.62 821.52 
L 1254.272727 821.52 
L 1254.272727 805.085217 
L 1275.578182 805.085217 
L 1275.578182 816.041739 
L 1286.230909 816.041739 
L 1286.230909 810.563478 
L 1296.883636 810.563478 
L 1296.883636 816.041739 
L 1307.536364 816.041739 
L 1307.536364 816.041739 
" clip-path="url(#pd6291e626d)" style="fill: none; stroke: #008000; stroke-width: 1.5; stroke-linecap: square"/>
   </g>
   <g id="line2d_39">
    <path d="M 242.263636 722.911304 
L 252.916364 722.911304 
L 252.916364 624.302609 
L 263.569091 624.302609 
L 263.569091 695.52 
L 274.221818 695.52 
L 274.221818 657.172174 
L 284.874545 657.172174 
L 284.874545 651.693913 
L 295.527273 651.693913 
L 295.527273 700.998261 
L 306.18 700.998261 
L 306.18 717.433043 
L 316.832727 717.433043 
L 316.832727 684.563478 
L 348.790909 684.563478 
L 348.790909 635.25913 
L 359.443636 635.25913 
L 359.443636 695.52 
L 370.096364 695.52 
L 370.096364 744.824348 
L 380.749091 744.824348 
L 380.749091 733.867826 
L 391.401818 733.867826 
L 391.401818 618.824348 
L 402.054545 618.824348 
L 402.054545 706.476522 
L 412.707273 706.476522 
L 412.707273 640.737391 
L 423.36 640.737391 
L 423.36 651.693913 
L 434.012727 651.693913 
L 434.012727 755.78087 
L 444.665455 755.78087 
L 444.665455 684.563478 
L 455.318182 684.563478 
L 455.318182 706.476522 
L 465.970909 706.476522 
L 465.970909 668.128696 
L 487.276364 668.128696 
L 487.276364 690.041739 
L 497.929091 690.041739 
L 497.929091 618.824348 
L 508.581818 618.824348 
L 508.581818 646.215652 
L 519.234545 646.215652 
L 519.234545 722.911304 
L 529.887273 722.911304 
L 529.887273 717.433043 
L 540.54 717.433043 
L 540.54 673.606957 
L 551.192727 673.606957 
L 551.192727 706.476522 
L 561.845455 706.476522 
L 561.845455 646.215652 
L 572.498182 646.215652 
L 572.498182 668.128696 
L 583.150909 668.128696 
L 583.150909 635.25913 
L 593.803636 635.25913 
L 593.803636 684.563478 
L 615.109091 684.563478 
L 615.109091 629.78087 
L 625.761818 629.78087 
L 625.761818 695.52 
L 636.414545 695.52 
L 636.414545 668.128696 
L 647.067273 668.128696 
L 647.067273 673.606957 
L 657.72 673.606957 
L 657.72 695.52 
L 668.372727 695.52 
L 668.372727 651.693913 
L 679.025455 651.693913 
L 679.025455 591.433043 
L 689.678182 591.433043 
L 689.678182 607.867826 
L 700.330909 607.867826 
L 700.330909 700.998261 
L 710.983636 700.998261 
L 710.983636 679.085217 
L 721.636364 679.085217 
L 721.636364 673.606957 
L 732.289091 673.606957 
L 732.289091 733.867826 
L 742.941818 733.867826 
L 742.941818 673.606957 
L 753.594545 673.606957 
L 753.594545 684.563478 
L 764.247273 684.563478 
L 764.247273 668.128696 
L 774.9 668.128696 
L 774.9 673.606957 
L 785.552727 673.606957 
L 785.552727 591.433043 
L 796.205455 591.433043 
L 796.205455 651.693913 
L 806.858182 651.693913 
L 806.858182 646.215652 
L 817.510909 646.215652 
L 817.510909 700.998261 
L 828.163636 700.998261 
L 828.163636 602.389565 
L 838.816364 602.389565 
L 838.816364 640.737391 
L 849.469091 640.737391 
L 849.469091 613.346087 
L 860.121818 613.346087 
L 860.121818 591.433043 
L 870.774545 591.433043 
L 870.774545 706.476522 
L 892.08 706.476522 
L 892.08 574.998261 
L 902.732727 574.998261 
L 902.732727 629.78087 
L 913.385455 629.78087 
L 913.385455 657.172174 
L 924.038182 657.172174 
L 924.038182 635.25913 
L 934.690909 635.25913 
L 934.690909 706.476522 
L 945.343636 706.476522 
L 945.343636 733.867826 
L 955.996364 733.867826 
L 955.996364 651.693913 
L 966.649091 651.693913 
L 966.649091 629.78087 
L 977.301818 629.78087 
L 977.301818 657.172174 
L 987.954545 657.172174 
L 987.954545 733.867826 
L 998.607273 733.867826 
L 998.607273 728.389565 
L 1009.26 728.389565 
L 1009.26 700.998261 
L 1019.912727 700.998261 
L 1019.912727 662.650435 
L 1030.565455 662.650435 
L 1030.565455 624.302609 
L 1041.218182 624.302609 
L 1041.218182 695.52 
L 1051.870909 695.52 
L 1051.870909 629.78087 
L 1062.523636 629.78087 
L 1062.523636 596.911304 
L 1073.176364 596.911304 
L 1073.176364 673.606957 
L 1083.829091 673.606957 
L 1083.829091 695.52 
L 1094.481818 695.52 
L 1094.481818 717.433043 
L 1105.134545 717.433043 
L 1105.134545 684.563478 
L 1115.787273 684.563478 
L 1115.787273 711.954783 
L 1126.44 711.954783 
L 1126.44 657.172174 
L 1137.092727 657.172174 
L 1137.092727 700.998261 
L 1147.745455 700.998261 
L 1147.745455 695.52 
L 1158.398182 695.52 
L 1158.398182 684.563478 
L 1169.050909 684.563478 
L 1169.050909 618.824348 
L 1179.703636 618.824348 
L 1179.703636 695.52 
L 1190.356364 695.52 
L 1190.356364 618.824348 
L 1201.009091 618.824348 
L 1201.009091 668.128696 
L 1211.661818 668.128696 
L 1211.661818 695.52 
L 1222.314545 695.52 
L 1222.314545 580.476522 
L 1232.967273 580.476522 
L 1232.967273 679.085217 
L 1243.62 679.085217 
L 1243.62 717.433043 
L 1254.272727 717.433043 
L 1254.272727 706.476522 
L 1264.925455 706.476522 
L 1264.925455 607.867826 
L 1275.578182 607.867826 
L 1275.578182 651.693913 
L 1286.230909 651.693913 
L 1286.230909 662.650435 
L 1296.883636 662.650435 
L 1296.883636 618.824348 
L 1307.536364 618.824348 
L 1307.536364 618.824348 
" clip-path="url(#pd6291e626d)" style="fill: none; stroke: #0000ff; stroke-width: 1.5; stroke-linecap: square"/>
   </g>
   <g id="patch_9">
    <path d="M 189 897.12 
L 189 559.65913 
" style="fill: none; stroke: #000000; stroke-width: 0.8; stroke-linejoin: miter; stroke-linecap: square"/>
   </g>
   <g id="patch_10">
    <path d="M 1360.8 897.12 
L 1360.8 559.65913 
" style="fill: none; stroke: #000000; stroke-width: 0.8; stroke-linejoin: miter; stroke-linecap: square"/>
   </g>
   <g id="patch_11">
    <path d="M 189 897.12 
L 1360.8 897.12 
" style="fill: none; stroke: #000000; stroke-width: 0.8; stroke-linejoin: miter; stroke-linecap: square"/>
   </g>
   <g id="patch_12">
    <path d="M 189 559.65913 
L 1360.8 559.65913 
" style="fill: none; stroke: #000000; stroke-width: 0.8; stroke-linejoin: miter; stroke-linecap: square"/>
   </g>
   <g id="text_35">
    <!-- Regular units -->
    <g transform="translate(735.230625 553.65913) scale(0.12 -0.12)">
     <defs>
      <path id="DejaVuSans-52" d="M 2841 2188 
Q 3044 2119 3236 1894 
Q 3428 1669 3622 1275 
L 4263 0 
L 3584 0 
L 2988 1197 
Q 2756 1666 2539 1819 
Q 2322 1972 1947 1972 
L 1259 1972 
L 1259 0 
L 628 0 
L 628 4666 
L 2053 4666 
Q 2853 4666 3247 4331 
Q 3641 3997 3641 3322 
Q 3641 2881 3436 2590 
Q 3231 2300 2841 2188 
z
M 1259 4147 
L 1259 2491 
L 2053 2491 
Q 2509 2491 2742 2702 
Q 2975 2913 2975 3322 
Q 2975 3731 2742 3939 
Q 2509 4147 2053 4147 
L 1259 4147 
z
" transform="scale(0.015625)"/>
      <path id="DejaVuSans-72" d="M 2631 2963 
Q 2534 3019 2420 3045 
Q 2306 3072 2169 3072 
Q 1681 3072 1420 2755 
Q 1159 2438 1159 1844 
L 1159 0 
L 581 0 
L 581 3500 
L 1159 3500 
L 1159 2956 
Q 1341 3275 1631 3429 
Q 1922 3584 2338 3584 
Q 2397 3584 2469 3576 
Q 2541 3569 2628 3553 
L 2631 2963 
z
" transform="scale(0.015625)"/>
     </defs>
     <use xlink:href="#DejaVuSans-52"/>
     <use xlink:href="#DejaVuSans-65" x="64.982422"/>
     <use xlink:href="#DejaVuSans-67" x="126.505859"/>
     <use xlink:href="#DejaVuSans-75" x="189.982422"/>
     <use xlink:href="#DejaVuSans-6c" x="253.361328"/>
     <use xlink:href="#DejaVuSans-61" x="281.144531"/>
     <use xlink:href="#DejaVuSans-72" x="342.423828"/>
     <use xlink:href="#DejaVuSans-20" x="383.537109"/>
     <use xlink:href="#DejaVuSans-75" x="415.324219"/>
     <use xlink:href="#DejaVuSans-6e" x="478.703125"/>
     <use xlink:href="#DejaVuSans-69" x="542.082031"/>
     <use xlink:href="#DejaVuSans-74" x="569.865234"/>
     <use xlink:href="#DejaVuSans-73" x="609.074219"/>
    </g>
   </g>
   <g id="legend_2">
    <g id="patch_13">
     <path d="M 1262.137187 714.704755 
L 1351 714.704755 
Q 1353.8 714.704755 1353.8 711.904755 
L 1353.8 569.45913 
Q 1353.8 566.65913 1351 566.65913 
L 1262.137187 566.65913 
Q 1259.337188 566.65913 1259.337188 569.45913 
L 1259.337188 711.904755 
Q 1259.337188 714.704755 1262.137187 714.704755 
z
" style="fill: #ffffff; opacity: 0.8; stroke: #cccccc; stroke-linejoin: miter"/>
    </g>
    <g id="line2d_40">
     <path d="M 1264.937187 577.996943 
L 1278.937187 577.996943 
L 1278.937187 577.996943 
L 1292.937187 577.996943 
L 1292.937187 577.996943 
" style="fill: none; stroke: #1f77b4; stroke-width: 1.5; stroke-linecap: square"/>
    </g>
    <g id="text_36">
     <!-- P1.1.1 -->
     <g transform="translate(1304.137187 582.896943) scale(0.14 -0.14)">
      <use xlink:href="#DejaVuSans-50"/>
      <use xlink:href="#DejaVuSans-31" x="60.302734"/>
      <use xlink:href="#DejaVuSans-2e" x="123.925781"/>
      <use xlink:href="#DejaVuSans-31" x="155.712891"/>
      <use xlink:href="#DejaVuSans-2e" x="219.335938"/>
      <use xlink:href="#DejaVuSans-31" x="251.123047"/>
     </g>
    </g>
    <g id="line2d_41">
     <path d="M 1264.937187 598.546318 
L 1278.937187 598.546318 
L 1278.937187 598.546318 
L 1292.937187 598.546318 
L 1292.937187 598.546318 
" style="fill: none; stroke: #ff7f0e; stroke-width: 1.5; stroke-linecap: square"/>
    </g>
    <g id="text_37">
     <!-- P1.1.2 -->
     <g transform="translate(1304.137187 603.446318) scale(0.14 -0.14)">
      <use xlink:href="#DejaVuSans-50"/>
      <use xlink:href="#DejaVuSans-31" x="60.302734"/>
      <use xlink:href="#DejaVuSans-2e" x="123.925781"/>
      <use xlink:href="#DejaVuSans-31" x="155.712891"/>
      <use xlink:href="#DejaVuSans-2e" x="219.335938"/>
      <use xlink:href="#DejaVuSans-32" x="251.123047"/>
     </g>
    </g>
    <g id="line2d_42">
     <path d="M 1264.937187 619.095693 
L 1278.937187 619.095693 
L 1278.937187 619.095693 
L 1292.937187 619.095693 
L 1292.937187 619.095693 
" style="fill: none; stroke: #2ca02c; stroke-width: 1.5; stroke-linecap: square"/>
    </g>
    <g id="text_38">
     <!-- P1.2.1 -->
     <g transform="translate(1304.137187 623.995693) scale(0.14 -0.14)">
      <use xlink:href="#DejaVuSans-50"/>
      <use xlink:href="#DejaVuSans-31" x="60.302734"/>
      <use xlink:href="#DejaVuSans-2e" x="123.925781"/>
      <use xlink:href="#DejaVuSans-32" x="155.712891"/>
      <use xlink:href="#DejaVuSans-2e" x="219.335938"/>
      <use xlink:href="#DejaVuSans-31" x="251.123047"/>
     </g>
    </g>
    <g id="line2d_43">
     <path d="M 1264.937187 639.645068 
L 1278.937187 639.645068 
L 1278.937187 639.645068 
L 1292.937187 639.645068 
L 1292.937187 639.645068 
" style="fill: none; stroke: #d62728; stroke-width: 1.5; stroke-linecap: square"/>
    </g>
    <g id="text_39">
     <!-- P1.2.2 -->
     <g transform="translate(1304.137187 644.545068) scale(0.14 -0.14)">
      <use xlink:href="#DejaVuSans-50"/>
      <use xlink:href="#DejaVuSans-31" x="60.302734"/>
      <use xlink:href="#DejaVuSans-2e" x="123.925781"/>
      <use xlink:href="#DejaVuSans-32" x="155.712891"/>
      <use xlink:href="#DejaVuSans-2e" x="219.335938"/>
      <use xlink:href="#DejaVuSans-32" x="251.123047"/>
     </g>
    </g>
    <g id="line2d_44">
     <path d="M 1264.937187 660.194443 
L 1278.937187 660.194443 
L 1278.937187 660.194443 
L 1292.937187 660.194443 
L 1292.937187 660.194443 
" style="fill: none; stroke: #ff0000; stroke-width: 1.5; stroke-linecap: square"/>
    </g>
    <g id="text_40">
     <!-- P1.1 -->
     <g transform="translate(1304.137187 665.094443) scale(0.14 -0.14)">
      <use xlink:href="#DejaVuSans-50"/>
      <use xlink:href="#DejaVuSans-31" x="60.302734"/>
      <use xlink:href="#DejaVuSans-2e" x="123.925781"/>
      <use xlink:href="#DejaVuSans-31" x="155.712891"/>
     </g>
    </g>
    <g id="line2d_45">
     <path d="M 1264.937187 680.743818 
L 1278.937187 680.743818 
L 1278.937187 680.743818 
L 1292.937187 680.743818 
L 1292.937187 680.743818 
" style="fill: none; stroke: #008000; stroke-width: 1.5; stroke-linecap: square"/>
    </g>
    <g id="text_41">
     <!-- P1.2 -->
     <g transform="translate(1304.137187 685.643818) scale(0.14 -0.14)">
      <use xlink:href="#DejaVuSans-50"/>
      <use xlink:href="#DejaVuSans-31" x="60.302734"/>
      <use xlink:href="#DejaVuSans-2e" x="123.925781"/>
      <use xlink:href="#DejaVuSans-32" x="155.712891"/>
     </g>
    </g>
    <g id="line2d_46">
     <path d="M 1264.937187 701.293193 
L 1278.937187 701.293193 
L 1278.937187 701.293193 
L 1292.937187 701.293193 
L 1292.937187 701.293193 
" style="fill: none; stroke: #0000ff; stroke-width: 1.5; stroke-linecap: square"/>
    </g>
    <g id="text_42">
     <!-- P1 -->
     <g transform="translate(1304.137187 706.193193) scale(0.14 -0.14)">
      <use xlink:href="#DejaVuSans-50"/>
      <use xlink:href="#DejaVuSans-31" x="60.302734"/>
     </g>
    </g>
   </g>
  </g>
 </g>
 <defs>
  <clipPath id="p7f57959233">
   <rect x="189" y="120.96" width="1171.8" height="337.46087"/>
  </clipPath>
  <clipPath id="pd6291e626d">
   <rect x="189" y="559.65913" width="1171.8" height="337.46087"/>
  </clipPath>
 </defs>
</svg>
